<?xml version="1.0" encoding="UTF-8"?>
<svg id="Layer_1" xmlns="http://www.w3.org/2000/svg" version="1.1" xmlns:xlink="http://www.w3.org/1999/xlink" viewBox="0 0 534.96 99.8">
  <!-- Generator: Adobe Illustrator 30.1.0, SVG Export Plug-In . SVG Version: 2.1.1 Build 136)  -->
  <defs>
    <style>
      .st0 {
        fill: url(#linear-gradient1);
      }

      .st1 {
        fill: #0d3c53;
      }

      .st2 {
        fill: url(#linear-gradient);
      }
    </style>
    <linearGradient id="linear-gradient" x1="33.28" y1="56.57" x2="54.79" y2="56.57" gradientUnits="userSpaceOnUse">
      <stop offset=".08" stop-color="#0f2d38"/>
      <stop offset=".99" stop-color="#0e3c53"/>
    </linearGradient>
    <linearGradient id="linear-gradient1" x1="93.98" y1="46.56" x2="132.09" y2="46.56" xlink:href="#linear-gradient"/>
  </defs>
  <g>
    <path class="st1" d="M132.09,19.53v44.58c0,6.38.42,12.27-3.56,17.79-.12.16-.24.32-.36.48-1.88,2.47-4.25,4.52-6.82,6.24-1.31.88-3.97,2.52-5.61,2.52,0,0-29.25,0-29.54,0-8.95,0-17.79-10.52-18.7-18.99-.52-4.91,0-10.17,0-15.1,0-2.38,0-34.05,0-34.05h-12.71v67.68s-4.21,0-4.21,0c-4.33-.99-8.36-3.25-11.43-6.46-3.23-3.38-4.56-7.3-5.87-11.67l.53-34.94.22-14.61H0s0-2.36,0-2.36c.57-4.69,2.71-9.11,5.99-12.5S12.96,3.28,17.39,2h71.29s-.19,58.88-.19,59.22c-.01,3.36,4.05,6.72,6.85,7.83,6.5,2.59,12.6-1.19,15.55-6.95l.35-.69-.04-59.41h1.35l2.99.43c6.74.97,13.71,7.48,15.52,13.88,0,0,1.03,3.22,1.03,3.22Z"/>
    <path class="st2" d="M54.79,23.27v67.4c0,.28-5.49-.6-6.03-.74-2.06-.53-4.05-1.36-5.85-2.49-3.72-2.33-5.77-5.62-7.94-9.3l-1.68-5.6s.53-34.9.53-34.94c.09-5.21,14.9-17.73,20.25-14.72l.72.41Z"/>
    <path class="st0" d="M132.09,19.53c0,12.04,0,24.08,0,36.11,0,3.03-.06,6.06-.08,9.1-.02,5.3.61,10.14-1.9,15.02-3.13,6.08-8.24,9.07-14.38,11.38,0,0-21.74,0-21.76,0,1.68,0,5.01-2.48,6.49-3.34,2.22-1.28,4.36-2.77,6.01-4.75,5.12-6.13,4.31-14.23,4.77-21.65.14-2.19,0-4.44,0-6.63,0-10.65-.02-21.3-.02-31.94,0-6.94-.01-13.87-.02-20.81h1.35l2.99.43,3.37,1.08,3.98,1.96,3.17,2.67,2.24,2.57,2.05,3.13.7,2.48,1.03,3.22Z"/>
  </g>
  <path class="st1" d="M201.43,12.62c.07,0-1.01,2.13-1.13,2.32-.77,1.22-1.51,2.52-2.52,3.58-1.42,1.48-3.1,1.88-5.08,2-1.27.08-2.55.4-3.81.41-.03.28,0,.5,0,.92-.03,6.97.05,33.66-.05,34.34-5.56.08-10.1-4.41-10.1-9.96v-23.7c-.07-1.15.15-1.67-.13-1.59-2.61,0-11.42.02-11.61-.02v-.04c-.08-4.53,3.58-8.25,8.11-8.25,9.95,0,25.52,0,25.52,0,0,0,.81,0,.81,0Z"/>
  <path class="st1" d="M226.34,53.5c-.37-.44-.71-.93-1.02-1.42-2.73-4.16-5.46-8.32-8.17-12.5-.18-.27-.35-.54-.61-.74-.41-.32-1.64-.62-2.09-.26-.34.27-.16.21-.28.59-.16.48,0,1.32,0,1.83v13.97h-9.52V12.61h8.92c3.99,0,8.29-.42,12.18.61,3.06.8,5.98,2.49,7.89,5.16,2.22,3.11,2.74,7.28,1.54,10.93-1.22,3.72-4.36,6.34-7.94,7.39,4.1,6.1,8.2,12.19,12.3,18.29-3.06,0-6.13,0-9.19,0-.89,0-1.82,0-2.63-.39-.53-.24-.98-.63-1.36-1.09ZM214.16,19.91v11.59h4.76c1.84,0,4.26-.11,5.45-1.83,1.42-2.05.61-5.61-.82-7.41-1.22-1.54-3-2.35-4.89-2.35h-4.5Z"/>
  <path class="st1" d="M272.81,52.86l-2.38-6.89h-16.38l-2.21,6.4c-.54,1.57-2.02,2.63-3.68,2.63h-7.63l16.78-42.45h9.88l16.78,42.45h-8.16c-1.36,0-2.56-.86-3-2.13ZM256.71,38.29l11.48.06-5.99-15.93-5.49,15.87Z"/>
  <path class="st1" d="M314.35,12.54h4.51c1.02,0,1.71,1.03,1.32,1.98l-16.42,39.59c-.22.53-.74.88-1.32.88h-3.34c-2.47,0-4.69-1.49-5.63-3.76l-15.17-36.7c-.39-.94.31-1.97,1.32-1.97h4.88c2.17,0,4.1,1.36,4.83,3.39l8.53,23.55c.46,1.26,2.23,1.26,2.69,0l8.45-23.2c.83-2.26,2.96-3.75,5.35-3.75Z"/>
  <path class="st1" d="M330.74,13.01v24.63c0,9.31,4.53,13.27,10.63,13.27,6.77,0,11.11-4.07,11.11-13.27V13.01h5.96v24.25c0,12.77-7.38,18.02-17.27,18.02-9.35,0-16.39-4.87-16.39-17.77v-18.54c0-3.29,2.66-5.96,5.96-5.96h0Z"/>
  <path class="st1" d="M367.35,55.28V13.01h6.57l14.94,21.39c3.45,4.96,5.49,6.66,7.71,10.98l.17.35c-.56-5.65-.06-8.44-.06-15.03V13.01h5.67v42.27h-6.09l-14.8-21.44c-3.25-4.7-6.34-6.68-8.69-11.25l.02,2.03c.34,5.34.22,5.58.22,12.6v18.06h-5.67Z"/>
  <path class="st1" d="M418.56,13.01v37.4c0,3.26-2.64,5.9-5.9,5.9h0V18.91c0-3.26,2.64-5.9,5.9-5.9h0Z"/>
  <path class="st1" d="M438.74,18.2h-13.51c0-2.87,2.33-5.2,5.2-5.2h27.71c0,2.63-1.19,5.07-3.82,5.07l-9.77.31v37.92h0c-3.2,0-5.8-2.6-5.8-5.8V18.2h0Z"/>
  <path class="st1" d="M485.73,36.37l-15.66.09v13.98l19.97.05h0c0,2.44-1.96,4.43-4.4,4.46l-21.98.31V13h21.24c2.84,0,5.15,2.3,5.15,5.15h0l-19.97-.21.05,13.88,11.12.04c2.49,0,4.5,2.03,4.5,4.52h0Z"/>
  <path class="st1" d="M497.52,13.26c3.58-.5,8.26-.07,12.93-.07,8.46,0,14.08.49,18.07,3.98,4.06,3.47,6.43,8.41,6.43,15.3s-2.3,12.64-6.56,16.55c-4.26,3.99-11.3,6.14-20.18,6.14-4.2,0-7.72-.19-10.7-.51V13.26ZM503.41,50.41c1.66-.1,3.85.23,6.15.09,12.77-.8,19.27-6.31,18.04-17.75-1.06-9.87-4.85-14.89-17.34-14.55-3.04.08-5.31-.07-6.86.23v31.97Z"/>
  <path class="st1" d="M174.94,74.51h2.75v13.78h9.11v1.68h-11.85v-15.46Z"/>
  <path class="st1" d="M198.95,74.51v15.46h-2.75v-15.46h2.75Z"/>
  <path class="st1" d="M214.76,89.97l-6.96-15.46h2.97l3.32,7.62c.91,2.09,1.7,3.97,2.28,5.78h.07c.6-1.79,1.49-3.73,2.43-5.75l3.6-7.63h2.94l-7.62,15.46h-3.04Z"/>
  <path class="st1" d="M245.09,82.73h-8.29v5.57h9.24v1.68h-11.98v-15.46h11.51v1.68h-8.76v4.89h8.29v1.65Z"/>
  <path class="st1" d="M268.99,74.51h2.75v13.78h9.11v1.68h-11.85v-15.46Z"/>
  <path class="st1" d="M307.23,82.08c0,5.32-4.46,8.14-9.9,8.14s-9.58-3.17-9.58-7.84c0-4.91,4.21-8.12,9.9-8.12,5.82,0,9.58,3.24,9.58,7.82ZM290.69,82.33c0,3.31,2.47,6.26,6.8,6.26s6.83-2.91,6.83-6.42c0-3.07-2.22-6.28-6.8-6.28-4.55,0-6.83,3.06-6.83,6.45Z"/>
  <path class="st1" d="M321.82,89.97l-6.96-15.46h2.97l3.32,7.62c.92,2.09,1.7,3.97,2.28,5.78h.07c.61-1.79,1.49-3.73,2.43-5.75l3.6-7.63h2.94l-7.62,15.46h-3.04Z"/>
  <path class="st1" d="M352.16,82.73h-8.29v5.57h9.24v1.68h-11.98v-15.46h11.51v1.68h-8.76v4.89h8.29v1.65Z"/>
  <path class="st1" d="M387.07,82.73h-8.29v5.57h9.24v1.68h-11.98v-15.46h11.51v1.68h-8.76v4.89h8.29v1.65Z"/>
  <path class="st1" d="M409.61,89.97l-2.72-3.42c-1.11-1.3-1.81-2.15-2.47-3.04h-.07c-.6.89-1.2,1.72-2.31,3.07l-2.56,3.4h-3.17l6.52-7.82-6.26-7.63h3.19l2.81,3.62c.79,1.01,1.39,1.79,1.96,2.62h.09c.6-.91,1.14-1.63,1.93-2.62l2.9-3.62h3.17l-6.48,7.52,6.64,7.93h-3.18Z"/>
  <path class="st1" d="M422.33,74.7c1.33-.16,3.07-.3,5.28-.3,2.72,0,4.71.46,5.98,1.28,1.17.74,1.86,1.86,1.86,3.23s-.57,2.5-1.65,3.31c-1.45,1.13-3.83,1.69-6.51,1.69-.82,0-1.58-.03-2.22-.14v6.19h-2.76v-15.27h0ZM425.07,82.15c.6.11,1.36.16,2.27.16,3.32,0,5.34-1.17,5.34-3.31s-1.99-3.03-5.03-3.03c-1.2,0-2.12.07-2.59.16v6.01h0Z"/>
  <path class="st1" d="M445.48,74.51h2.76v13.78h9.11v1.68h-11.86v-15.46h0Z"/>
  <path class="st1" d="M483.72,82.08c0,5.32-4.46,8.14-9.9,8.14s-9.58-3.17-9.58-7.84c0-4.91,4.21-8.12,9.9-8.12,5.82,0,9.58,3.24,9.58,7.82ZM467.18,82.33c0,3.31,2.47,6.26,6.8,6.26s6.82-2.91,6.82-6.42c0-3.07-2.22-6.28-6.8-6.28-4.55,0-6.82,3.06-6.82,6.45Z"/>
  <path class="st1" d="M493.63,74.73c1.4-.2,3.38-.32,5.28-.32,2.94,0,4.84.39,6.16,1.26,1.08.69,1.68,1.74,1.68,2.93,0,2.04-1.77,3.4-4.01,3.95v.07c1.65.41,2.63,1.51,3.13,3.12.7,2.15,1.2,3.65,1.65,4.25h-2.85c-.35-.44-.82-1.77-1.42-3.69-.63-2.13-1.77-2.93-4.26-3.01h-2.59v6.69h-2.76v-15.25h0ZM496.38,81.77h2.81c2.94,0,4.8-1.17,4.8-2.93,0-1.99-1.99-2.87-4.9-2.89-1.33,0-2.27.09-2.72.19v5.63Z"/>
  <path class="st1" d="M528.02,82.73h-8.29v5.57h9.24v1.68h-11.98v-15.46h11.5v1.68h-8.76v4.89h8.29v1.65h0Z"/>
  <rect class="st1" x="145.82" width="2.45" height="99.8"/>
</svg>