<svg xmlns="http://www.w3.org/2000/svg" xmlns:xlink="http://www.w3.org/1999/xlink" width="140" zoomAndPan="magnify" viewBox="0 0 104.88 42" height="56" preserveAspectRatio="xMidYMid meet" version="1.0"><defs><clipPath id="b28826fa4f"><path d="M 1.160156 10 L 27 10 L 27 28 L 1.160156 28 Z M 1.160156 10 " clip-rule="nonzero"/></clipPath><clipPath id="e0aa9a1b44"><path d="M 7 14 L 12 14 L 12 28 L 7 28 Z M 7 14 " clip-rule="nonzero"/></clipPath><clipPath id="34d98c8c8f"><path d="M 11.84375 14.988281 C 11.84375 14.988281 11.84375 27.777344 11.84375 27.78125 C 11.84375 27.835938 10.800781 27.667969 10.695312 27.640625 C 10.304688 27.539062 9.929688 27.382812 9.585938 27.167969 C 8.878906 26.722656 8.492188 26.101562 8.078125 25.402344 L 7.761719 24.339844 C 7.761719 24.339844 7.859375 17.714844 7.859375 17.707031 C 7.878906 16.71875 10.6875 14.34375 11.703125 14.914062 C 11.703125 14.910156 11.84375 14.988281 11.84375 14.988281 Z M 11.84375 14.988281 " clip-rule="nonzero"/></clipPath><linearGradient x1="148.93999" gradientTransform="matrix(0.11531, 0, 0, 0.11531, -9.414218, -47.534321)" y1="597.021" x2="184.340003" gradientUnits="userSpaceOnUse" y2="597.021" id="d6acdebf3f"><stop stop-opacity="1" stop-color="rgb(69.40918%, 71.369934%, 73.329163%)" offset="0"/><stop stop-opacity="1" stop-color="rgb(69.40918%, 71.369934%, 73.329163%)" offset="0.0625"/><stop stop-opacity="1" stop-color="rgb(69.40918%, 71.369934%, 73.329163%)" offset="0.078125"/><stop stop-opacity="1" stop-color="rgb(69.522095%, 71.481323%, 73.428345%)" offset="0.0859375"/><stop stop-opacity="1" stop-color="rgb(69.815063%, 71.766663%, 73.684692%)" offset="0.09375"/><stop stop-opacity="1" stop-color="rgb(70.173645%, 72.117615%, 73.997498%)" offset="0.101562"/><stop stop-opacity="1" stop-color="rgb(70.530701%, 72.467041%, 74.310303%)" offset="0.109375"/><stop stop-opacity="1" stop-color="rgb(70.889282%, 72.817993%, 74.623108%)" offset="0.117188"/><stop stop-opacity="1" stop-color="rgb(71.247864%, 73.168945%, 74.937439%)" offset="0.125"/><stop stop-opacity="1" stop-color="rgb(71.604919%, 73.518372%, 75.250244%)" offset="0.132813"/><stop stop-opacity="1" stop-color="rgb(71.963501%, 73.869324%, 75.563049%)" offset="0.140625"/><stop stop-opacity="1" stop-color="rgb(72.320557%, 74.21875%, 75.875854%)" offset="0.148438"/><stop stop-opacity="1" stop-color="rgb(72.679138%, 74.569702%, 76.18866%)" offset="0.15625"/><stop stop-opacity="1" stop-color="rgb(73.03772%, 74.920654%, 76.501465%)" offset="0.164063"/><stop stop-opacity="1" stop-color="rgb(73.394775%, 75.270081%, 76.815796%)" offset="0.171875"/><stop stop-opacity="1" stop-color="rgb(73.753357%, 75.621033%, 77.128601%)" offset="0.179688"/><stop stop-opacity="1" stop-color="rgb(74.110413%, 75.970459%, 77.441406%)" offset="0.1875"/><stop stop-opacity="1" stop-color="rgb(74.468994%, 76.321411%, 77.754211%)" offset="0.195313"/><stop stop-opacity="1" stop-color="rgb(74.82605%, 76.672363%, 78.067017%)" offset="0.203125"/><stop stop-opacity="1" stop-color="rgb(75.184631%, 77.02179%, 78.381348%)" offset="0.210938"/><stop stop-opacity="1" stop-color="rgb(75.543213%, 77.372742%, 78.694153%)" offset="0.21875"/><stop stop-opacity="1" stop-color="rgb(75.900269%, 77.722168%, 79.006958%)" offset="0.226563"/><stop stop-opacity="1" stop-color="rgb(76.25885%, 78.07312%, 79.319763%)" offset="0.234375"/><stop stop-opacity="1" stop-color="rgb(76.615906%, 78.424072%, 79.632568%)" offset="0.242188"/><stop stop-opacity="1" stop-color="rgb(76.974487%, 78.773499%, 79.945374%)" offset="0.25"/><stop stop-opacity="1" stop-color="rgb(77.333069%, 79.124451%, 80.259705%)" offset="0.257813"/><stop stop-opacity="1" stop-color="rgb(77.690125%, 79.473877%, 80.57251%)" offset="0.265625"/><stop stop-opacity="1" stop-color="rgb(78.048706%, 79.824829%, 80.885315%)" offset="0.273438"/><stop stop-opacity="1" stop-color="rgb(78.405762%, 80.175781%, 81.19812%)" offset="0.28125"/><stop stop-opacity="1" stop-color="rgb(78.764343%, 80.525208%, 81.510925%)" offset="0.289062"/><stop stop-opacity="1" stop-color="rgb(79.122925%, 80.87616%, 81.825256%)" offset="0.296875"/><stop stop-opacity="1" stop-color="rgb(79.47998%, 81.227112%, 82.138062%)" offset="0.304688"/><stop stop-opacity="1" stop-color="rgb(79.838562%, 81.576538%, 82.450867%)" offset="0.3125"/><stop stop-opacity="1" stop-color="rgb(80.195618%, 81.92749%, 82.763672%)" offset="0.320312"/><stop stop-opacity="1" stop-color="rgb(80.554199%, 82.276917%, 83.076477%)" offset="0.328125"/><stop stop-opacity="1" stop-color="rgb(80.911255%, 82.627869%, 83.390808%)" offset="0.335938"/><stop stop-opacity="1" stop-color="rgb(81.269836%, 82.978821%, 83.703613%)" offset="0.34375"/><stop stop-opacity="1" stop-color="rgb(81.628418%, 83.328247%, 84.016418%)" offset="0.351562"/><stop stop-opacity="1" stop-color="rgb(81.985474%, 83.679199%, 84.329224%)" offset="0.359375"/><stop stop-opacity="1" stop-color="rgb(82.344055%, 84.028625%, 84.642029%)" offset="0.367188"/><stop stop-opacity="1" stop-color="rgb(82.701111%, 84.379578%, 84.954834%)" offset="0.375"/><stop stop-opacity="1" stop-color="rgb(83.059692%, 84.73053%, 85.269165%)" offset="0.382812"/><stop stop-opacity="1" stop-color="rgb(83.418274%, 85.079956%, 85.58197%)" offset="0.390625"/><stop stop-opacity="1" stop-color="rgb(83.77533%, 85.430908%, 85.894775%)" offset="0.398438"/><stop stop-opacity="1" stop-color="rgb(84.133911%, 85.780334%, 86.207581%)" offset="0.40625"/><stop stop-opacity="1" stop-color="rgb(84.490967%, 86.131287%, 86.520386%)" offset="0.414062"/><stop stop-opacity="1" stop-color="rgb(84.849548%, 86.482239%, 86.834717%)" offset="0.421875"/><stop stop-opacity="1" stop-color="rgb(85.206604%, 86.831665%, 87.147522%)" offset="0.429688"/><stop stop-opacity="1" stop-color="rgb(85.565186%, 87.182617%, 87.460327%)" offset="0.4375"/><stop stop-opacity="1" stop-color="rgb(85.923767%, 87.532043%, 87.773132%)" offset="0.445312"/><stop stop-opacity="1" stop-color="rgb(86.280823%, 87.882996%, 88.085938%)" offset="0.453125"/><stop stop-opacity="1" stop-color="rgb(86.639404%, 88.233948%, 88.398743%)" offset="0.460938"/><stop stop-opacity="1" stop-color="rgb(86.99646%, 88.583374%, 88.713074%)" offset="0.46875"/><stop stop-opacity="1" stop-color="rgb(87.355042%, 88.934326%, 89.025879%)" offset="0.476562"/><stop stop-opacity="1" stop-color="rgb(87.713623%, 89.283752%, 89.338684%)" offset="0.484375"/><stop stop-opacity="1" stop-color="rgb(88.067627%, 89.630127%, 89.648438%)" offset="0.492188"/><stop stop-opacity="1" stop-color="rgb(88.299561%, 89.846802%, 89.846802%)" offset="0.5"/><stop stop-opacity="1" stop-color="rgb(88.471985%, 89.982605%, 89.982605%)" offset="0.515625"/><stop stop-opacity="1" stop-color="rgb(88.700867%, 90.164185%, 90.164185%)" offset="0.53125"/><stop stop-opacity="1" stop-color="rgb(88.929749%, 90.345764%, 90.345764%)" offset="0.546875"/><stop stop-opacity="1" stop-color="rgb(89.15863%, 90.525818%, 90.525818%)" offset="0.5625"/><stop stop-opacity="1" stop-color="rgb(89.389038%, 90.707397%, 90.707397%)" offset="0.578125"/><stop stop-opacity="1" stop-color="rgb(89.61792%, 90.888977%, 90.888977%)" offset="0.59375"/><stop stop-opacity="1" stop-color="rgb(89.846802%, 91.069031%, 91.069031%)" offset="0.609375"/><stop stop-opacity="1" stop-color="rgb(90.075684%, 91.25061%, 91.25061%)" offset="0.625"/><stop stop-opacity="1" stop-color="rgb(90.304565%, 91.43219%, 91.43219%)" offset="0.640625"/><stop stop-opacity="1" stop-color="rgb(90.534973%, 91.61377%, 91.61377%)" offset="0.65625"/><stop stop-opacity="1" stop-color="rgb(90.763855%, 91.793823%, 91.793823%)" offset="0.671875"/><stop stop-opacity="1" stop-color="rgb(90.992737%, 91.975403%, 91.975403%)" offset="0.6875"/><stop stop-opacity="1" stop-color="rgb(91.221619%, 92.156982%, 92.156982%)" offset="0.703125"/><stop stop-opacity="1" stop-color="rgb(91.4505%, 92.338562%, 92.338562%)" offset="0.71875"/><stop stop-opacity="1" stop-color="rgb(91.679382%, 92.518616%, 92.518616%)" offset="0.734375"/><stop stop-opacity="1" stop-color="rgb(91.90979%, 92.700195%, 92.700195%)" offset="0.75"/><stop stop-opacity="1" stop-color="rgb(92.138672%, 92.881775%, 92.881775%)" offset="0.765625"/><stop stop-opacity="1" stop-color="rgb(92.367554%, 93.063354%, 93.063354%)" offset="0.78125"/><stop stop-opacity="1" stop-color="rgb(92.596436%, 93.243408%, 93.243408%)" offset="0.796875"/><stop stop-opacity="1" stop-color="rgb(92.825317%, 93.424988%, 93.424988%)" offset="0.8125"/><stop stop-opacity="1" stop-color="rgb(93.055725%, 93.606567%, 93.606567%)" offset="0.828125"/><stop stop-opacity="1" stop-color="rgb(93.284607%, 93.786621%, 93.786621%)" offset="0.84375"/><stop stop-opacity="1" stop-color="rgb(93.513489%, 93.968201%, 93.968201%)" offset="0.859375"/><stop stop-opacity="1" stop-color="rgb(93.742371%, 94.14978%, 94.14978%)" offset="0.875"/><stop stop-opacity="1" stop-color="rgb(93.971252%, 94.33136%, 94.33136%)" offset="0.890625"/><stop stop-opacity="1" stop-color="rgb(94.200134%, 94.511414%, 94.511414%)" offset="0.90625"/><stop stop-opacity="1" stop-color="rgb(94.430542%, 94.692993%, 94.692993%)" offset="0.921875"/><stop stop-opacity="1" stop-color="rgb(94.659424%, 94.874573%, 94.874573%)" offset="0.9375"/><stop stop-opacity="1" stop-color="rgb(94.888306%, 95.056152%, 95.056152%)" offset="0.953125"/><stop stop-opacity="1" stop-color="rgb(95.117188%, 95.236206%, 95.236206%)" offset="0.96875"/><stop stop-opacity="1" stop-color="rgb(95.346069%, 95.417786%, 95.417786%)" offset="0.984375"/><stop stop-opacity="1" stop-color="rgb(95.574951%, 95.599365%, 95.599365%)" offset="1"/></linearGradient><clipPath id="518bdab94f"><path d="M 19 10 L 27 10 L 27 28 L 19 28 Z M 19 10 " clip-rule="nonzero"/></clipPath><clipPath id="f99f0dbed8"><path d="M 26.511719 14.277344 C 26.511719 16.5625 26.511719 18.847656 26.511719 21.132812 C 26.511719 21.707031 26.5 22.285156 26.5 22.859375 C 26.496094 23.867188 26.617188 24.785156 26.136719 25.710938 C 25.542969 26.863281 24.574219 27.429688 23.410156 27.871094 C 23.410156 27.871094 19.28125 27.871094 19.28125 27.871094 C 19.597656 27.871094 20.230469 27.398438 20.511719 27.234375 C 20.933594 26.992188 21.335938 26.710938 21.652344 26.332031 C 22.625 25.171875 22.46875 23.632812 22.554688 22.222656 C 22.582031 21.808594 22.554688 21.382812 22.554688 20.964844 C 22.554688 18.945312 22.550781 16.921875 22.550781 14.902344 C 22.546875 13.585938 22.546875 12.269531 22.546875 10.953125 C 22.546875 10.953125 22.800781 10.953125 22.800781 10.953125 L 23.371094 11.035156 L 24.007812 11.238281 L 24.765625 11.609375 L 25.367188 12.117188 L 25.792969 12.605469 L 26.179688 13.199219 L 26.316406 13.671875 C 26.316406 13.667969 26.511719 14.277344 26.511719 14.277344 Z M 26.511719 14.277344 " clip-rule="nonzero"/></clipPath><linearGradient x1="248.840002" gradientTransform="matrix(0.11531, 0, 0, 0.11531, -9.414218, -47.534321)" y1="580.55902" x2="312.460021" gradientUnits="userSpaceOnUse" y2="580.55902" id="10629d5d94"><stop stop-opacity="1" stop-color="rgb(69.40918%, 71.369934%, 73.329163%)" offset="0"/><stop stop-opacity="1" stop-color="rgb(69.40918%, 71.369934%, 73.329163%)" offset="0.0625"/><stop stop-opacity="1" stop-color="rgb(69.40918%, 71.369934%, 73.329163%)" offset="0.078125"/><stop stop-opacity="1" stop-color="rgb(69.549561%, 71.507263%, 73.452759%)" offset="0.0859375"/><stop stop-opacity="1" stop-color="rgb(69.873047%, 71.821594%, 73.735046%)" offset="0.09375"/><stop stop-opacity="1" stop-color="rgb(70.236206%, 72.177124%, 74.052429%)" offset="0.101562"/><stop stop-opacity="1" stop-color="rgb(70.597839%, 72.532654%, 74.369812%)" offset="0.109375"/><stop stop-opacity="1" stop-color="rgb(70.960999%, 72.888184%, 74.687195%)" offset="0.117188"/><stop stop-opacity="1" stop-color="rgb(71.324158%, 73.243713%, 75.004578%)" offset="0.125"/><stop stop-opacity="1" stop-color="rgb(71.687317%, 73.599243%, 75.32196%)" offset="0.132812"/><stop stop-opacity="1" stop-color="rgb(72.050476%, 73.953247%, 75.639343%)" offset="0.140625"/><stop stop-opacity="1" stop-color="rgb(72.413635%, 74.308777%, 75.956726%)" offset="0.148438"/><stop stop-opacity="1" stop-color="rgb(72.776794%, 74.664307%, 76.274109%)" offset="0.15625"/><stop stop-opacity="1" stop-color="rgb(73.139954%, 75.019836%, 76.591492%)" offset="0.164062"/><stop stop-opacity="1" stop-color="rgb(73.503113%, 75.375366%, 76.908875%)" offset="0.171875"/><stop stop-opacity="1" stop-color="rgb(73.866272%, 75.730896%, 77.227783%)" offset="0.179688"/><stop stop-opacity="1" stop-color="rgb(74.227905%, 76.0849%, 77.545166%)" offset="0.1875"/><stop stop-opacity="1" stop-color="rgb(74.591064%, 76.44043%, 77.862549%)" offset="0.195312"/><stop stop-opacity="1" stop-color="rgb(74.954224%, 76.795959%, 78.179932%)" offset="0.203125"/><stop stop-opacity="1" stop-color="rgb(75.317383%, 77.151489%, 78.497314%)" offset="0.210938"/><stop stop-opacity="1" stop-color="rgb(75.680542%, 77.507019%, 78.814697%)" offset="0.21875"/><stop stop-opacity="1" stop-color="rgb(76.043701%, 77.862549%, 79.13208%)" offset="0.226562"/><stop stop-opacity="1" stop-color="rgb(76.40686%, 78.218079%, 79.449463%)" offset="0.234375"/><stop stop-opacity="1" stop-color="rgb(76.77002%, 78.572083%, 79.766846%)" offset="0.242188"/><stop stop-opacity="1" stop-color="rgb(77.133179%, 78.927612%, 80.084229%)" offset="0.25"/><stop stop-opacity="1" stop-color="rgb(77.494812%, 79.283142%, 80.401611%)" offset="0.257812"/><stop stop-opacity="1" stop-color="rgb(77.857971%, 79.638672%, 80.718994%)" offset="0.265625"/><stop stop-opacity="1" stop-color="rgb(78.22113%, 79.994202%, 81.036377%)" offset="0.273438"/><stop stop-opacity="1" stop-color="rgb(78.58429%, 80.349731%, 81.355286%)" offset="0.28125"/><stop stop-opacity="1" stop-color="rgb(78.947449%, 80.703735%, 81.672668%)" offset="0.289063"/><stop stop-opacity="1" stop-color="rgb(79.310608%, 81.059265%, 81.990051%)" offset="0.296875"/><stop stop-opacity="1" stop-color="rgb(79.673767%, 81.414795%, 82.307434%)" offset="0.304688"/><stop stop-opacity="1" stop-color="rgb(80.036926%, 81.770325%, 82.624817%)" offset="0.3125"/><stop stop-opacity="1" stop-color="rgb(80.400085%, 82.125854%, 82.9422%)" offset="0.320312"/><stop stop-opacity="1" stop-color="rgb(80.763245%, 82.481384%, 83.259583%)" offset="0.328125"/><stop stop-opacity="1" stop-color="rgb(81.124878%, 82.835388%, 83.576965%)" offset="0.335937"/><stop stop-opacity="1" stop-color="rgb(81.488037%, 83.190918%, 83.894348%)" offset="0.34375"/><stop stop-opacity="1" stop-color="rgb(81.851196%, 83.546448%, 84.211731%)" offset="0.351562"/><stop stop-opacity="1" stop-color="rgb(82.214355%, 83.901978%, 84.529114%)" offset="0.359375"/><stop stop-opacity="1" stop-color="rgb(82.577515%, 84.257507%, 84.846497%)" offset="0.367187"/><stop stop-opacity="1" stop-color="rgb(82.940674%, 84.613037%, 85.163879%)" offset="0.375"/><stop stop-opacity="1" stop-color="rgb(83.303833%, 84.967041%, 85.482788%)" offset="0.382812"/><stop stop-opacity="1" stop-color="rgb(83.666992%, 85.322571%, 85.800171%)" offset="0.390625"/><stop stop-opacity="1" stop-color="rgb(84.030151%, 85.678101%, 86.117554%)" offset="0.398437"/><stop stop-opacity="1" stop-color="rgb(84.391785%, 86.03363%, 86.434937%)" offset="0.40625"/><stop stop-opacity="1" stop-color="rgb(84.754944%, 86.38916%, 86.752319%)" offset="0.414062"/><stop stop-opacity="1" stop-color="rgb(85.118103%, 86.74469%, 87.069702%)" offset="0.421875"/><stop stop-opacity="1" stop-color="rgb(85.481262%, 87.10022%, 87.387085%)" offset="0.429688"/><stop stop-opacity="1" stop-color="rgb(85.844421%, 87.454224%, 87.704468%)" offset="0.4375"/><stop stop-opacity="1" stop-color="rgb(86.207581%, 87.809753%, 88.021851%)" offset="0.445312"/><stop stop-opacity="1" stop-color="rgb(86.57074%, 88.165283%, 88.339233%)" offset="0.453125"/><stop stop-opacity="1" stop-color="rgb(86.933899%, 88.520813%, 88.656616%)" offset="0.460937"/><stop stop-opacity="1" stop-color="rgb(87.297058%, 88.876343%, 88.973999%)" offset="0.46875"/><stop stop-opacity="1" stop-color="rgb(87.660217%, 89.231873%, 89.291382%)" offset="0.476562"/><stop stop-opacity="1" stop-color="rgb(88.021851%, 89.585876%, 89.610291%)" offset="0.484375"/><stop stop-opacity="1" stop-color="rgb(88.331604%, 89.868164%, 89.871216%)" offset="0.5"/><stop stop-opacity="1" stop-color="rgb(88.575745%, 90.065002%, 90.065002%)" offset="0.515625"/><stop stop-opacity="1" stop-color="rgb(88.809204%, 90.249634%, 90.249634%)" offset="0.53125"/><stop stop-opacity="1" stop-color="rgb(89.041138%, 90.432739%, 90.432739%)" offset="0.546875"/><stop stop-opacity="1" stop-color="rgb(89.273071%, 90.617371%, 90.617371%)" offset="0.5625"/><stop stop-opacity="1" stop-color="rgb(89.506531%, 90.800476%, 90.800476%)" offset="0.578125"/><stop stop-opacity="1" stop-color="rgb(89.738464%, 90.983582%, 90.983582%)" offset="0.59375"/><stop stop-opacity="1" stop-color="rgb(89.970398%, 91.168213%, 91.168213%)" offset="0.609375"/><stop stop-opacity="1" stop-color="rgb(90.202332%, 91.351318%, 91.351318%)" offset="0.625"/><stop stop-opacity="1" stop-color="rgb(90.435791%, 91.53595%, 91.53595%)" offset="0.640625"/><stop stop-opacity="1" stop-color="rgb(90.667725%, 91.719055%, 91.719055%)" offset="0.65625"/><stop stop-opacity="1" stop-color="rgb(90.899658%, 91.902161%, 91.902161%)" offset="0.671875"/><stop stop-opacity="1" stop-color="rgb(91.133118%, 92.086792%, 92.086792%)" offset="0.6875"/><stop stop-opacity="1" stop-color="rgb(91.365051%, 92.269897%, 92.269897%)" offset="0.703125"/><stop stop-opacity="1" stop-color="rgb(91.596985%, 92.454529%, 92.454529%)" offset="0.71875"/><stop stop-opacity="1" stop-color="rgb(91.830444%, 92.637634%, 92.637634%)" offset="0.734375"/><stop stop-opacity="1" stop-color="rgb(92.062378%, 92.822266%, 92.822266%)" offset="0.75"/><stop stop-opacity="1" stop-color="rgb(92.294312%, 93.005371%, 93.005371%)" offset="0.765625"/><stop stop-opacity="1" stop-color="rgb(92.526245%, 93.188477%, 93.188477%)" offset="0.78125"/><stop stop-opacity="1" stop-color="rgb(92.759705%, 93.373108%, 93.373108%)" offset="0.796875"/><stop stop-opacity="1" stop-color="rgb(92.991638%, 93.556213%, 93.556213%)" offset="0.8125"/><stop stop-opacity="1" stop-color="rgb(93.223572%, 93.740845%, 93.740845%)" offset="0.828125"/><stop stop-opacity="1" stop-color="rgb(93.457031%, 93.92395%, 93.92395%)" offset="0.84375"/><stop stop-opacity="1" stop-color="rgb(93.688965%, 94.107056%, 94.107056%)" offset="0.859375"/><stop stop-opacity="1" stop-color="rgb(93.920898%, 94.291687%, 94.291687%)" offset="0.875"/><stop stop-opacity="1" stop-color="rgb(94.154358%, 94.474792%, 94.474792%)" offset="0.890625"/><stop stop-opacity="1" stop-color="rgb(94.386292%, 94.659424%, 94.659424%)" offset="0.90625"/><stop stop-opacity="1" stop-color="rgb(94.618225%, 94.842529%, 94.842529%)" offset="0.921875"/><stop stop-opacity="1" stop-color="rgb(94.850159%, 95.025635%, 95.025635%)" offset="0.9375"/><stop stop-opacity="1" stop-color="rgb(95.083618%, 95.210266%, 95.210266%)" offset="0.953125"/><stop stop-opacity="1" stop-color="rgb(95.315552%, 95.393372%, 95.393372%)" offset="0.96875"/><stop stop-opacity="1" stop-color="rgb(95.559692%, 95.587158%, 95.587158%)" offset="1"/></linearGradient></defs><g clip-path="url(#b28826fa4f)"><path fill="#ffffff" d="M 26.511719 14.277344 C 26.511719 15.933594 26.511719 17.585938 26.511719 19.242188 C 26.511719 20.40625 26.511719 21.570312 26.511719 22.738281 C 26.511719 23.949219 26.589844 25.066406 25.835938 26.113281 C 25.816406 26.144531 25.792969 26.175781 25.769531 26.207031 C 25.410156 26.671875 24.960938 27.0625 24.472656 27.390625 C 24.226562 27.558594 23.722656 27.867188 23.410156 27.867188 C 23.410156 27.867188 17.859375 27.867188 17.800781 27.867188 C 16.101562 27.867188 14.425781 25.871094 14.253906 24.265625 C 14.152344 23.332031 14.253906 22.335938 14.253906 21.398438 C 14.253906 20.945312 14.253906 14.933594 14.253906 14.933594 C 14.253906 14.933594 11.839844 14.933594 11.839844 14.933594 L 11.839844 27.78125 C 11.839844 27.78125 11.042969 27.78125 11.042969 27.78125 C 10.222656 27.589844 9.457031 27.164062 8.875 26.554688 C 8.261719 25.914062 8.007812 25.167969 7.761719 24.339844 L 7.859375 17.707031 L 7.902344 14.9375 L 1.445312 14.9375 C 1.445312 14.9375 1.445312 14.488281 1.445312 14.488281 C 1.550781 13.597656 1.957031 12.757812 2.582031 12.117188 C 3.207031 11.46875 3.902344 11.195312 4.742188 10.953125 L 18.273438 10.953125 C 18.273438 10.953125 18.238281 22.125 18.238281 22.191406 C 18.234375 22.832031 19.007812 23.46875 19.539062 23.679688 C 20.773438 24.171875 21.929688 23.453125 22.488281 22.359375 L 22.558594 22.226562 L 22.546875 10.953125 L 22.804688 10.953125 C 22.804688 10.953125 23.371094 11.03125 23.371094 11.035156 C 24.652344 11.21875 25.972656 12.453125 26.316406 13.667969 C 26.316406 13.667969 26.511719 14.277344 26.511719 14.277344 Z M 26.511719 14.277344 " fill-opacity="1" fill-rule="nonzero"/></g><g clip-path="url(#e0aa9a1b44)"><g clip-path="url(#34d98c8c8f)"><path fill="url(#d6acdebf3f)" d="M 7.761719 14.34375 L 7.761719 27.835938 L 11.84375 27.835938 L 11.84375 14.34375 Z M 7.761719 14.34375 " fill-rule="nonzero"/></g></g><g clip-path="url(#518bdab94f)"><g clip-path="url(#f99f0dbed8)"><path fill="url(#10629d5d94)" d="M 19.28125 10.953125 L 19.28125 27.871094 L 26.617188 27.871094 L 26.617188 10.953125 Z M 19.28125 10.953125 " fill-rule="nonzero"/></g></g><path fill="#f9f9fa" d="M 39.863281 12.96875 C 39.878906 12.96875 39.671875 13.375 39.648438 13.410156 C 39.503906 13.640625 39.363281 13.886719 39.171875 14.085938 C 38.902344 14.367188 38.582031 14.445312 38.207031 14.464844 C 37.964844 14.484375 37.722656 14.542969 37.484375 14.542969 C 37.476562 14.597656 37.484375 14.640625 37.480469 14.71875 C 37.476562 16.042969 37.492188 21.109375 37.472656 21.238281 C 36.417969 21.253906 35.554688 20.398438 35.554688 19.34375 C 35.554688 17.757812 35.554688 15.628906 35.554688 14.847656 C 35.542969 14.628906 35.582031 14.53125 35.53125 14.546875 C 35.035156 14.542969 33.363281 14.550781 33.328125 14.542969 C 33.328125 14.539062 33.328125 14.535156 33.328125 14.535156 C 33.308594 13.675781 34.003906 12.96875 34.867188 12.96875 C 36.753906 12.96875 39.710938 12.972656 39.710938 12.96875 C 39.710938 12.96875 39.863281 12.96875 39.863281 12.96875 Z M 39.863281 12.96875 " fill-opacity="1" fill-rule="nonzero"/><path fill="#f9f9fa" d="M 44.589844 20.726562 C 44.519531 20.644531 44.457031 20.550781 44.394531 20.457031 C 43.878906 19.667969 43.359375 18.878906 42.84375 18.085938 C 42.808594 18.035156 42.777344 17.984375 42.726562 17.945312 C 42.652344 17.886719 42.417969 17.828125 42.328125 17.894531 C 42.265625 17.945312 42.300781 17.9375 42.277344 18.007812 C 42.246094 18.101562 42.277344 18.257812 42.277344 18.355469 C 42.277344 18.71875 42.277344 19.078125 42.277344 19.4375 C 42.277344 19.535156 42.277344 21.007812 42.277344 21.007812 L 40.472656 21.007812 L 40.472656 12.964844 C 41.035156 12.964844 41.597656 12.964844 42.164062 12.964844 C 42.921875 12.964844 43.738281 12.886719 44.476562 13.082031 C 45.054688 13.234375 45.609375 13.554688 45.972656 14.0625 C 46.390625 14.652344 46.492188 15.441406 46.261719 16.136719 C 46.03125 16.84375 45.4375 17.339844 44.757812 17.539062 C 45.535156 18.695312 46.3125 19.851562 47.089844 21.007812 C 46.507812 21.007812 45.925781 21.007812 45.34375 21.007812 C 45.175781 21.007812 45 21.003906 44.84375 20.933594 C 44.746094 20.886719 44.664062 20.8125 44.589844 20.726562 Z M 42.277344 14.351562 L 42.277344 16.550781 C 42.277344 16.550781 43.179688 16.550781 43.183594 16.550781 C 43.53125 16.550781 43.988281 16.53125 44.214844 16.203125 C 44.484375 15.8125 44.332031 15.136719 44.058594 14.796875 C 43.828125 14.503906 43.492188 14.351562 43.132812 14.351562 Z M 42.277344 14.351562 " fill-opacity="1" fill-rule="nonzero"/><path fill="#f9f9fa" d="M 53.222656 20.605469 L 52.769531 19.296875 L 49.660156 19.296875 L 49.242188 20.511719 C 49.140625 20.808594 48.859375 21.007812 48.542969 21.007812 L 47.09375 21.007812 L 50.277344 12.953125 L 52.152344 12.953125 L 55.335938 21.007812 L 53.789062 21.007812 C 53.53125 21.007812 53.304688 20.84375 53.222656 20.605469 Z M 50.164062 17.839844 L 52.34375 17.851562 L 51.207031 14.828125 Z M 50.164062 17.839844 " fill-opacity="1" fill-rule="nonzero"/><path fill="#f9f9fa" d="M 61.105469 12.953125 L 61.960938 12.953125 C 62.152344 12.953125 62.285156 13.148438 62.210938 13.328125 L 59.09375 20.84375 C 59.050781 20.941406 58.953125 21.011719 58.84375 21.011719 L 58.207031 21.011719 C 57.738281 21.011719 57.316406 20.726562 57.140625 20.296875 L 54.261719 13.332031 C 54.1875 13.152344 54.320312 12.957031 54.511719 12.957031 L 55.4375 12.957031 C 55.851562 12.957031 56.214844 13.214844 56.355469 13.601562 L 57.972656 18.070312 C 58.0625 18.308594 58.398438 18.308594 58.484375 18.070312 L 60.089844 13.664062 C 60.246094 13.234375 60.648438 12.953125 61.105469 12.953125 Z M 61.105469 12.953125 " fill-opacity="1" fill-rule="nonzero"/><path fill="#f9f9fa" d="M 64.214844 13.039062 L 64.214844 17.714844 C 64.214844 19.480469 65.074219 20.230469 66.230469 20.230469 C 67.515625 20.230469 68.339844 19.460938 68.339844 17.714844 L 68.339844 13.039062 L 69.46875 13.039062 L 69.46875 17.644531 C 69.46875 20.070312 68.070312 21.0625 66.191406 21.0625 C 64.417969 21.0625 63.082031 20.140625 63.082031 17.691406 L 63.082031 14.171875 C 63.082031 13.546875 63.589844 13.039062 64.214844 13.039062 Z M 64.214844 13.039062 " fill-opacity="1" fill-rule="nonzero"/><path fill="#f9f9fa" d="M 71.164062 21.0625 L 71.164062 13.042969 L 72.410156 13.042969 L 75.246094 17.101562 C 75.902344 18.042969 76.289062 18.363281 76.710938 19.183594 L 76.742188 19.25 C 76.636719 18.179688 76.730469 17.648438 76.730469 16.398438 L 76.730469 13.042969 L 77.808594 13.042969 L 77.808594 21.0625 L 76.652344 21.0625 L 73.84375 16.996094 C 73.226562 16.101562 72.636719 15.726562 72.191406 14.859375 L 72.195312 15.246094 C 72.261719 16.257812 72.238281 16.304688 72.238281 17.636719 L 72.238281 21.0625 Z M 71.164062 21.0625 " fill-opacity="1" fill-rule="nonzero"/><path fill="#f9f9fa" d="M 80.882812 13.039062 L 80.882812 20.140625 C 80.882812 20.757812 80.382812 21.257812 79.761719 21.257812 L 79.761719 14.160156 C 79.765625 13.542969 80.261719 13.039062 80.882812 13.039062 Z M 80.882812 13.039062 " fill-opacity="1" fill-rule="nonzero"/><path fill="#f9f9fa" d="M 84.710938 14.027344 L 82.148438 14.027344 C 82.148438 13.484375 82.589844 13.042969 83.132812 13.042969 L 88.390625 13.042969 C 88.390625 13.539062 88.164062 14.003906 87.667969 14.003906 L 85.8125 14.0625 L 85.8125 21.257812 C 85.207031 21.257812 84.710938 20.765625 84.710938 20.160156 Z M 84.710938 14.027344 " fill-opacity="1" fill-rule="nonzero"/><path fill="#f9f9fa" d="M 93.628906 17.472656 L 90.65625 17.492188 L 90.65625 20.144531 L 94.449219 20.152344 C 94.449219 20.617188 94.074219 20.992188 93.613281 21 L 89.441406 21.058594 L 89.441406 13.039062 L 93.472656 13.039062 C 94.007812 13.039062 94.449219 13.476562 94.449219 14.015625 L 90.65625 13.976562 L 90.667969 16.609375 L 92.777344 16.617188 C 93.25 16.621094 93.628906 17.003906 93.628906 17.472656 Z M 93.628906 17.472656 " fill-opacity="1" fill-rule="nonzero"/><path fill="#f9f9fa" d="M 95.867188 13.089844 C 96.546875 12.992188 97.433594 13.074219 98.324219 13.074219 C 99.929688 13.074219 100.992188 13.167969 101.753906 13.828125 C 102.523438 14.488281 102.972656 15.425781 102.972656 16.734375 C 102.972656 18.054688 102.535156 19.132812 101.730469 19.875 C 100.917969 20.632812 99.582031 21.039062 97.898438 21.039062 C 97.101562 21.039062 96.433594 21.003906 95.867188 20.941406 Z M 96.984375 20.140625 C 97.300781 20.121094 97.71875 20.183594 98.152344 20.15625 C 100.578125 20.003906 101.8125 18.957031 101.578125 16.789062 C 101.375 14.914062 100.660156 13.960938 98.289062 14.027344 C 97.710938 14.042969 97.28125 14.011719 96.988281 14.070312 L 96.988281 20.140625 Z M 96.984375 20.140625 " fill-opacity="1" fill-rule="nonzero"/><path fill="#f9f9fa" d="M 34.644531 24.714844 L 35.164062 24.714844 L 35.164062 27.328125 L 36.894531 27.328125 L 36.894531 27.648438 L 34.644531 27.648438 Z M 34.644531 24.714844 " fill-opacity="1" fill-rule="nonzero"/><path fill="#f9f9fa" d="M 38.679688 24.714844 L 39.203125 24.714844 L 39.203125 27.648438 L 38.679688 27.648438 Z M 38.679688 24.714844 " fill-opacity="1" fill-rule="nonzero"/><path fill="#f9f9fa" d="M 42.203125 27.648438 L 40.882812 24.714844 L 41.445312 24.714844 L 42.078125 26.160156 C 42.25 26.554688 42.398438 26.914062 42.511719 27.257812 L 42.523438 27.257812 C 42.636719 26.917969 42.804688 26.550781 42.984375 26.167969 L 43.667969 24.714844 L 44.226562 24.714844 L 42.78125 27.648438 Z M 42.203125 27.648438 " fill-opacity="1" fill-rule="nonzero"/><path fill="#f9f9fa" d="M 47.960938 26.273438 L 46.386719 26.273438 L 46.386719 27.328125 L 48.140625 27.328125 L 48.140625 27.648438 L 45.867188 27.648438 L 45.867188 24.714844 L 48.050781 24.714844 L 48.050781 25.03125 L 46.386719 25.03125 L 46.386719 25.960938 L 47.960938 25.960938 Z M 47.960938 26.273438 " fill-opacity="1" fill-rule="nonzero"/><path fill="#f9f9fa" d="M 52.496094 24.714844 L 53.015625 24.714844 L 53.015625 27.328125 L 54.746094 27.328125 L 54.746094 27.648438 L 52.496094 27.648438 Z M 52.496094 24.714844 " fill-opacity="1" fill-rule="nonzero"/><path fill="#f9f9fa" d="M 59.753906 26.152344 C 59.753906 27.160156 58.90625 27.695312 57.875 27.695312 C 56.804688 27.695312 56.054688 27.09375 56.054688 26.207031 C 56.054688 25.277344 56.855469 24.667969 57.933594 24.667969 C 59.039062 24.667969 59.753906 25.28125 59.753906 26.152344 Z M 56.613281 26.199219 C 56.613281 26.824219 57.082031 27.386719 57.902344 27.386719 C 58.734375 27.386719 59.199219 26.832031 59.199219 26.167969 C 59.199219 25.582031 58.78125 24.976562 57.910156 24.976562 C 57.046875 24.976562 56.613281 25.554688 56.613281 26.199219 Z M 56.613281 26.199219 " fill-opacity="1" fill-rule="nonzero"/><path fill="#f9f9fa" d="M 62.519531 27.648438 L 61.199219 24.714844 L 61.765625 24.714844 L 62.394531 26.160156 C 62.570312 26.554688 62.71875 26.914062 62.828125 27.257812 L 62.839844 27.257812 C 62.957031 26.917969 63.121094 26.550781 63.300781 26.167969 L 63.984375 24.714844 L 64.542969 24.714844 L 63.097656 27.648438 Z M 62.519531 27.648438 " fill-opacity="1" fill-rule="nonzero"/><path fill="#f9f9fa" d="M 68.28125 26.273438 L 66.707031 26.273438 L 66.707031 27.328125 L 68.460938 27.328125 L 68.460938 27.648438 L 66.183594 27.648438 L 66.183594 24.714844 L 68.371094 24.714844 L 68.371094 25.03125 L 66.707031 25.03125 L 66.707031 25.960938 L 68.28125 25.960938 Z M 68.28125 26.273438 " fill-opacity="1" fill-rule="nonzero"/><path fill="#f9f9fa" d="M 74.90625 26.273438 L 73.332031 26.273438 L 73.332031 27.328125 L 75.085938 27.328125 L 75.085938 27.648438 L 72.8125 27.648438 L 72.8125 24.714844 L 74.996094 24.714844 L 74.996094 25.03125 L 73.332031 25.03125 L 73.332031 25.960938 L 74.90625 25.960938 Z M 74.90625 26.273438 " fill-opacity="1" fill-rule="nonzero"/><path fill="#f9f9fa" d="M 79.183594 27.648438 L 78.667969 27 C 78.457031 26.75 78.324219 26.589844 78.199219 26.421875 L 78.1875 26.421875 C 78.074219 26.589844 77.957031 26.75 77.75 27.003906 L 77.261719 27.648438 L 76.664062 27.648438 L 77.898438 26.167969 L 76.710938 24.714844 L 77.320312 24.714844 L 77.851562 25.402344 C 78.003906 25.59375 78.117188 25.742188 78.222656 25.902344 L 78.242188 25.902344 C 78.355469 25.726562 78.457031 25.59375 78.605469 25.402344 L 79.15625 24.714844 L 79.757812 24.714844 L 78.527344 26.144531 L 79.789062 27.648438 Z M 79.183594 27.648438 " fill-opacity="1" fill-rule="nonzero"/><path fill="#f9f9fa" d="M 81.597656 24.75 C 81.847656 24.71875 82.179688 24.695312 82.597656 24.695312 C 83.113281 24.695312 83.492188 24.78125 83.734375 24.9375 C 83.957031 25.078125 84.085938 25.289062 84.085938 25.550781 C 84.085938 25.816406 83.980469 26.027344 83.773438 26.175781 C 83.496094 26.390625 83.046875 26.5 82.539062 26.5 C 82.382812 26.5 82.238281 26.492188 82.117188 26.472656 L 82.117188 27.648438 L 81.59375 27.648438 L 81.59375 24.75 Z M 82.117188 26.164062 C 82.230469 26.183594 82.375 26.195312 82.550781 26.195312 C 83.179688 26.195312 83.5625 25.972656 83.5625 25.566406 C 83.5625 25.179688 83.183594 24.992188 82.609375 24.992188 C 82.378906 24.992188 82.207031 25.003906 82.117188 25.023438 Z M 82.117188 26.164062 " fill-opacity="1" fill-rule="nonzero"/><path fill="#f9f9fa" d="M 85.992188 24.714844 L 86.515625 24.714844 L 86.515625 27.328125 L 88.242188 27.328125 L 88.242188 27.648438 L 85.992188 27.648438 Z M 85.992188 24.714844 " fill-opacity="1" fill-rule="nonzero"/><path fill="#f9f9fa" d="M 93.25 26.152344 C 93.25 27.160156 92.402344 27.695312 91.371094 27.695312 C 90.300781 27.695312 89.550781 27.09375 89.550781 26.207031 C 89.550781 25.277344 90.351562 24.667969 91.429688 24.667969 C 92.535156 24.667969 93.25 25.28125 93.25 26.152344 Z M 90.109375 26.199219 C 90.109375 26.824219 90.578125 27.386719 91.398438 27.386719 C 92.230469 27.386719 92.695312 26.832031 92.695312 26.167969 C 92.695312 25.582031 92.273438 24.976562 91.40625 24.976562 C 90.542969 24.976562 90.109375 25.554688 90.109375 26.199219 Z M 90.109375 26.199219 " fill-opacity="1" fill-rule="nonzero"/><path fill="#f9f9fa" d="M 95.128906 24.753906 C 95.394531 24.714844 95.769531 24.695312 96.128906 24.695312 C 96.6875 24.695312 97.050781 24.769531 97.300781 24.933594 C 97.503906 25.0625 97.617188 25.265625 97.617188 25.492188 C 97.617188 25.878906 97.28125 26.136719 96.855469 26.238281 L 96.855469 26.253906 C 97.167969 26.328125 97.355469 26.539062 97.449219 26.84375 C 97.582031 27.253906 97.679688 27.539062 97.761719 27.648438 L 97.222656 27.648438 C 97.15625 27.566406 97.066406 27.316406 96.953125 26.949219 C 96.832031 26.546875 96.617188 26.394531 96.144531 26.378906 L 95.652344 26.378906 L 95.652344 27.648438 L 95.128906 27.648438 Z M 95.652344 26.089844 L 96.1875 26.089844 C 96.742188 26.089844 97.097656 25.867188 97.097656 25.535156 C 97.097656 25.15625 96.71875 24.988281 96.167969 24.988281 C 95.914062 24.988281 95.738281 25.003906 95.652344 25.023438 Z M 95.652344 26.089844 " fill-opacity="1" fill-rule="nonzero"/><path fill="#f9f9fa" d="M 101.65625 26.273438 L 100.085938 26.273438 L 100.085938 27.328125 L 101.835938 27.328125 L 101.835938 27.648438 L 99.5625 27.648438 L 99.5625 24.714844 L 101.746094 24.714844 L 101.746094 25.03125 L 100.082031 25.03125 L 100.082031 25.960938 L 101.65625 25.960938 Z M 101.65625 26.273438 " fill-opacity="1" fill-rule="nonzero"/><path fill="#ffffff" d="M 29.117188 10.574219 L 29.582031 10.574219 L 29.582031 29.511719 L 29.117188 29.511719 Z M 29.117188 10.574219 " fill-opacity="1" fill-rule="nonzero"/></svg>