<?xml version="1.0" encoding="utf-8"?>
<!-- Generator: Adobe Illustrator 29.8.3, SVG Export Plug-In . SVG Version: 9.03 Build 0)  -->
<svg version="1.0" id="Layer_1" xmlns="http://www.w3.org/2000/svg" xmlns:xlink="http://www.w3.org/1999/xlink" x="0px" y="0px"
	 viewBox="0 0 1080 1080" style="enable-background:new 0 0 1080 1080;" xml:space="preserve">
<style type="text/css">
	.st0{fill:url(#SVGID_1_);}
	.st1{fill:#FFFFFF;}
	.st2{fill:url(#SVGID_00000174601051992201958730000018204479790065327531_);}
	.st3{fill:url(#SVGID_00000060013166749873251840000014246766535166910124_);}
	.st4{fill:url(#SVGID_00000140001223955662526480000013307615407311626678_);}
	.st5{fill:url(#SVGID_00000092415387357745210540000006612910184401964972_);}
	.st6{fill:#F9F9FA;}
	.st7{fill:#004364;}
	.st8{fill:url(#SVGID_00000111181475839246765550000009179647512284833675_);stroke:#034466;stroke-miterlimit:10;}
	.st9{fill:url(#SVGID_00000075878137945649762550000009021161665291384978_);}
	.st10{fill:url(#SVGID_00000129205030451322487850000000698442110314941347_);}
	.st11{fill:url(#SVGID_00000179614215875992519790000008017235494636564098_);}
	.st12{fill:url(#SVGID_00000057137292136980173920000001617387514963606402_);}
	.st13{fill:url(#SVGID_00000114770802588905342870000004446461004880221115_);}
	.st14{fill:url(#SVGID_00000140014628563187350950000000643549195419419796_);}
	.st15{fill:url(#SVGID_00000090974562696516227060000015392580868976054171_);}
</style>
<g>
	<linearGradient id="SVGID_1_" gradientUnits="userSpaceOnUse" x1="2721.7886" y1="507.5142" x2="3256.0303" y2="507.5142">
		<stop  offset="0.081" style="stop-color:#093E60"/>
		<stop  offset="0.4916" style="stop-color:#093959"/>
		<stop  offset="1" style="stop-color:#081C2E"/>
	</linearGradient>
	<circle class="st0" cx="2988.91" cy="507.51" r="267.12"/>
	<g>
		<path class="st1" d="M3135.47,435.85c0,23.1,0,46.2,0,69.31c0,16.28,0,32.57,0,48.85c0,16.9,1.1,32.54-9.43,47.15
			c-0.31,0.43-0.63,0.86-0.95,1.28c-4.99,6.54-11.28,11.98-18.09,16.55c-3.48,2.33-10.52,6.67-14.88,6.67c0,0-77.53,0-78.32,0
			c-23.73,0-47.16-27.9-49.56-50.33c-1.39-13.02,0-26.96,0-40.04c0-6.32,0-90.27,0-90.27c0,0-33.69,0-33.69,0v179.41
			c0,0-11.15,0-11.15,0c-11.47-2.64-22.16-8.6-30.3-17.12c-8.57-8.97-12.08-19.36-15.56-30.95l1.4-92.62l0.58-38.72h-90.2
			c0,0,0-6.26,0-6.26c1.52-12.42,7.2-24.14,15.88-33.14c8.72-9.03,18.47-12.83,30.21-16.24h188.96c0,0-0.49,156.07-0.49,156.99
			c-0.03,8.91,10.74,17.81,18.17,20.76c17.24,6.85,33.39-3.14,41.23-18.43l0.93-1.83l-0.12-157.49h3.58c0,0,7.91,1.13,7.92,1.14
			c17.87,2.56,36.33,19.83,41.14,36.8C3132.74,427.32,3135.47,435.85,3135.47,435.85z"/>
		
			<linearGradient id="SVGID_00000111869742323527474130000005056960639900182707_" gradientUnits="userSpaceOnUse" x1="2873.5479" y1="534.0279" x2="2930.5564" y2="534.0279">
			<stop  offset="0.081" style="stop-color:#B1B6BB"/>
			<stop  offset="0.4916" style="stop-color:#E1E5E5"/>
			<stop  offset="1" style="stop-color:#F4F4F4"/>
		</linearGradient>
		<path style="fill:url(#SVGID_00000111869742323527474130000005056960639900182707_);" d="M2930.56,445.77c0,0,0,178.59,0,178.65
			c0,0.75-14.56-1.6-15.99-1.97c-5.46-1.41-10.73-3.61-15.51-6.61c-9.87-6.19-15.29-14.9-21.05-24.64l-4.45-14.85
			c0,0,1.4-92.51,1.4-92.63c0.24-13.8,39.49-46.99,53.69-39.03C2928.64,444.7,2930.56,445.77,2930.56,445.77z"/>
		
			<linearGradient id="SVGID_00000011015115794238925180000017484606866387077774_" gradientUnits="userSpaceOnUse" x1="3034.4412" y1="507.5142" x2="3135.4719" y2="507.5142">
			<stop  offset="0.081" style="stop-color:#B1B6BB"/>
			<stop  offset="0.4916" style="stop-color:#E1E5E5"/>
			<stop  offset="1" style="stop-color:#F4F4F4"/>
		</linearGradient>
		<path style="fill:url(#SVGID_00000011015115794238925180000017484606866387077774_);" d="M3135.47,435.85c0,31.91,0,63.82,0,95.73
			c0,8.04-0.17,16.08-0.2,24.11c-0.05,14.05,1.62,26.89-5.04,39.81c-8.29,16.1-21.85,24.03-38.12,30.16c0,0-57.63,0-57.68,0
			c4.46,0.02,13.28-6.58,17.2-8.85c5.89-3.4,11.54-7.35,15.94-12.6c13.58-16.24,11.42-37.72,12.63-57.4
			c0.36-5.81-0.01-11.76-0.01-17.58c-0.02-28.22-0.04-56.45-0.06-84.67c-0.01-18.38-0.03-36.77-0.04-55.17c0,0,3.58,0,3.58,0
			l7.92,1.14l8.94,2.85l10.54,5.18l8.41,7.08l5.94,6.81l5.44,8.3l1.86,6.58L3135.47,435.85z"/>
	</g>
</g>
<g>
	<g>
		<path class="st1" d="M311.57,536.06c0,14.34,0,28.69,0,43.03c0,10.11,0,20.22,0,30.33c0,10.49,0.68,20.2-5.86,29.28
			c-0.19,0.27-0.39,0.53-0.59,0.79c-3.1,4.06-7,7.44-11.23,10.28c-2.16,1.45-6.53,4.14-9.24,4.14c0,0-48.14,0-48.63,0
			c-14.74,0-29.28-17.32-30.77-31.25c-0.86-8.09,0-16.74,0-24.86c0-3.92,0-56.05,0-56.05c0,0-20.92,0-20.92,0v111.4
			c0,0-6.92,0-6.92,0c-7.12-1.64-13.76-5.34-18.81-10.63c-5.32-5.57-7.5-12.02-9.66-19.21l0.87-57.51l0.36-24.04H94.16
			c0,0,0-3.89,0-3.89c0.94-7.71,4.47-14.99,9.86-20.57c5.42-5.61,11.47-7.97,18.76-10.09h117.33c0,0-0.31,96.91-0.31,97.48
			c-0.02,5.53,6.67,11.06,11.28,12.89c10.7,4.26,20.74-1.95,25.6-11.44l0.58-1.14l-0.07-97.79h2.22c0,0,4.91,0.7,4.92,0.71
			c11.09,1.59,22.56,12.31,25.54,22.85C309.87,530.76,311.57,536.06,311.57,536.06z"/>
		
			<linearGradient id="SVGID_00000165948163843552317930000012627721354496343723_" gradientUnits="userSpaceOnUse" x1="148.9393" y1="597.0215" x2="184.3368" y2="597.0215">
			<stop  offset="0.081" style="stop-color:#B1B6BB"/>
			<stop  offset="0.4916" style="stop-color:#E1E5E5"/>
			<stop  offset="1" style="stop-color:#F4F4F4"/>
		</linearGradient>
		<path style="fill:url(#SVGID_00000165948163843552317930000012627721354496343723_);" d="M184.34,542.22c0,0,0,110.89,0,110.93
			c0,0.47-9.04-0.99-9.93-1.22c-3.39-0.88-6.66-2.24-9.63-4.1c-6.13-3.84-9.49-9.25-13.07-15.3l-2.77-9.22
			c0,0,0.87-57.44,0.87-57.52c0.15-8.57,24.52-29.18,33.34-24.23C183.14,541.55,184.34,542.22,184.34,542.22z"/>
		
			<linearGradient id="SVGID_00000007427237229757243090000005255876439451361167_" gradientUnits="userSpaceOnUse" x1="248.8405" y1="580.5587" x2="311.5721" y2="580.5587">
			<stop  offset="0.081" style="stop-color:#B1B6BB"/>
			<stop  offset="0.4916" style="stop-color:#E1E5E5"/>
			<stop  offset="1" style="stop-color:#F4F4F4"/>
		</linearGradient>
		<path style="fill:url(#SVGID_00000007427237229757243090000005255876439451361167_);" d="M311.57,536.06c0,19.81,0,39.63,0,59.44
			c0,4.99-0.1,9.98-0.12,14.97c-0.03,8.73,1.01,16.7-3.13,24.72c-5.15,10-13.57,14.92-23.67,18.73c0,0-35.78,0-35.81,0
			c2.77,0.01,8.24-4.09,10.68-5.49c3.65-2.11,7.17-4.57,9.89-7.83c8.43-10.08,7.09-23.42,7.84-35.64c0.22-3.61-0.01-7.3-0.01-10.92
			c-0.01-17.52-0.03-35.05-0.04-52.57c-0.01-11.41-0.02-22.83-0.03-34.25c0,0,2.22,0,2.22,0l4.92,0.71l5.55,1.77l6.54,3.22
			l5.22,4.39l3.69,4.23l3.38,5.15l1.16,4.09C309.87,530.76,311.57,536.06,311.57,536.06z"/>
	</g>
	<g>
		<g>
			<path class="st6" d="M427.35,524.7c0.12,0-1.66,3.51-1.85,3.82c-1.27,2.01-2.48,4.15-4.15,5.88c-2.34,2.44-5.1,3.1-8.37,3.29
				c-2.08,0.14-4.2,0.66-6.27,0.67c-0.05,0.46,0,0.83-0.02,1.52c-0.05,11.48,0.08,55.4-0.08,56.52c-9.15,0.14-16.63-7.26-16.63-16.4
				c0-13.78,0-32.24,0-39c-0.11-1.9,0.25-2.74-0.21-2.62c-4.29-0.02-18.79,0.03-19.11-0.03c0-0.02,0-0.05,0-0.06
				c-0.14-7.46,5.88-13.58,13.35-13.58c16.38,0,42,0.02,42,0C426.03,524.7,427.35,524.7,427.35,524.7z"/>
			<path class="st6" d="M468.34,591.97c-0.61-0.72-1.16-1.53-1.69-2.33c-4.49-6.85-8.98-13.7-13.46-20.57
				c-0.29-0.44-0.58-0.89-1-1.21c-0.67-0.52-2.7-1.03-3.45-0.43c-0.55,0.44-0.26,0.35-0.46,0.97c-0.26,0.8,0,2.18,0,3.02
				c0,3.13,0,6.25,0,9.38c0,0.86,0,13.61,0,13.61h-15.66v-69.73c4.89,0,9.78,0,14.68,0c6.56,0,13.64-0.69,20.04,1
				c5.04,1.32,9.84,4.09,12.98,8.49c3.65,5.12,4.51,11.98,2.53,17.99c-2.01,6.13-7.17,10.44-13.07,12.17
				c6.74,10.04,13.5,20.06,20.24,30.1c-5.04,0-10.08,0-15.13-0.02c-1.47,0-3-0.02-4.34-0.64
				C469.7,593.37,468.97,592.72,468.34,591.97z M448.3,536.68v19.08c0,0,7.8,0,7.83,0c3.03,0,7-0.18,8.96-3.02
				c2.34-3.37,1-9.24-1.35-12.2c-2.01-2.53-4.93-3.86-8.05-3.86H448.3z"/>
			<path class="st6" d="M543.19,590.91l-3.92-11.34h-26.96l-3.63,10.53c-0.89,2.59-3.33,4.32-6.05,4.32h-12.57l27.61-69.87h16.26
				l27.61,69.87h-13.42C545.88,594.42,543.91,593.01,543.19,590.91z M516.67,566.95l18.9,0.09l-9.85-26.22L516.67,566.95z"/>
			<path class="st6" d="M611.55,524.56h7.42c1.69,0,2.82,1.7,2.18,3.26l-27.03,65.16c-0.37,0.87-1.23,1.46-2.18,1.46h-5.5
				c-4.06,0-7.72-2.45-9.27-6.19l-24.96-60.41c-0.64-1.55,0.51-3.25,2.18-3.25h8.03c3.57,0,6.74,2.24,7.95,5.58l14.04,38.76
				c0.75,2.07,3.68,2.07,4.43,0l13.91-38.19C604.1,527.01,607.61,524.56,611.55,524.56z"/>
			<path class="st6" d="M638.52,525.32v40.53c0,15.32,7.46,21.84,17.5,21.84c11.14,0,18.28-6.7,18.28-21.84v-40.53h9.81v39.92
				c0,21.03-12.15,29.65-28.43,29.65c-15.39,0-26.97-8.01-26.97-29.25v-30.51C628.71,529.72,633.1,525.32,638.52,525.32
				L638.52,525.32z"/>
			<path class="st6" d="M698.78,594.9v-69.57h10.82l24.6,35.2c5.69,8.17,9.04,10.96,12.69,18.07l0.28,0.58
				c-0.92-9.3-0.09-13.9-0.09-24.73v-29.12h9.33v69.57h-10.02l-24.37-35.29c-5.35-7.74-10.44-10.99-14.3-18.51l0.03,3.34
				c0.57,8.78,0.37,9.18,0.37,20.73v29.73L698.78,594.9L698.78,594.9z"/>
			<path class="st6" d="M783.08,525.32v61.56c0,5.36-4.35,9.72-9.72,9.72l0,0v-61.56C773.38,529.68,777.71,525.32,783.08,525.32
				L783.08,525.32z"/>
			<path class="st6" d="M816.29,533.88h-22.24l0,0c0-4.72,3.83-8.55,8.55-8.55h42.89h2.71c0,4.32-1.96,8.34-6.28,8.34l-16.08,0.51
				v62.42l0,0c-5.27,0-9.55-4.28-9.55-9.55v-53.16H816.29z"/>
			<path class="st6" d="M893.63,563.77l-25.78,0.15v23l32.87,0.08l0,0c0,4.02-3.23,7.29-7.25,7.34l-36.18,0.51v-69.54h34.96
				c4.67,0,8.47,3.79,8.47,8.47l0,0l-32.87-0.35l0.08,22.85l18.3,0.06C890.32,556.36,893.63,559.68,893.63,563.77L893.63,563.77z"/>
			<path class="st6" d="M913.03,525.74c5.9-0.83,13.59-0.12,21.29-0.12c13.93,0,23.17,0.81,29.75,6.54
				c6.68,5.72,10.59,13.84,10.59,25.18c0,11.45-3.79,20.81-10.8,27.25c-7.02,6.56-18.6,10.1-33.21,10.1
				c-6.91,0-12.7-0.31-17.61-0.84V525.74z M922.73,586.88c2.73-0.17,6.34,0.38,10.13,0.15c21.01-1.32,31.72-10.39,29.7-29.21
				c-1.75-16.24-7.98-24.5-28.53-23.95c-5.01,0.14-8.74-0.12-11.29,0.38V586.88z"/>
			<path class="st6" d="M382.09,626.56h4.52v22.68h14.99V652h-19.51V626.56z"/>
			<path class="st6" d="M421.61,626.56V652h-4.52v-25.44H421.61z"/>
			<path class="st6" d="M447.64,652l-11.45-25.44h4.89l5.47,12.54c1.5,3.43,2.8,6.53,3.75,9.52h0.11c0.98-2.94,2.45-6.15,4-9.47
				l5.93-12.57h4.84l-12.54,25.44h-5.01V652z"/>
			<path class="st6" d="M497.56,640.08h-13.64v9.16h15.2V652H479.4v-25.44h18.94v2.76h-14.42v8.05h13.64V640.08z"/>
			<path class="st6" d="M536.89,626.56h4.52v22.68h14.99V652h-19.51V626.56z"/>
			<path class="st6" d="M599.83,639.02c0,8.75-7.34,13.39-16.29,13.39c-9.26,0-15.77-5.21-15.77-12.9c0-8.08,6.93-13.36,16.29-13.36
				C593.63,626.15,599.83,631.48,599.83,639.02z M572.61,639.43c0,5.44,4.06,10.3,11.19,10.3c7.19,0,11.25-4.8,11.25-10.57
				c0-5.06-3.65-10.34-11.19-10.34C576.36,628.83,572.61,633.85,572.61,639.43z"/>
			<path class="st6" d="M623.84,652l-11.45-25.44h4.89l5.47,12.54c1.52,3.43,2.8,6.53,3.75,9.52h0.11c1-2.94,2.45-6.15,4-9.47
				l5.93-12.57h4.84l-12.54,25.44h-5.01V652z"/>
			<path class="st6" d="M673.78,640.08h-13.64v9.16h15.2V652h-19.72v-25.44h18.94v2.76h-14.42v8.05h13.64V640.08z"/>
			<path class="st6" d="M731.25,640.08h-13.64v9.16h15.2V652h-19.72v-25.44h18.94v2.76h-14.42v8.05h13.64V640.08z"/>
			<path class="st6" d="M768.34,652l-4.47-5.62c-1.82-2.15-2.97-3.54-4.06-5.01h-0.11c-0.98,1.47-1.98,2.84-3.8,5.06l-4.21,5.59
				h-5.21l10.73-12.87l-10.3-12.57h5.26l4.63,5.96c1.3,1.66,2.28,2.94,3.22,4.31h0.15c0.98-1.5,1.87-2.68,3.17-4.31l4.78-5.96h5.21
				l-10.67,12.38l10.93,13.06h-5.24V652z"/>
			<path class="st6" d="M789.27,626.87c2.19-0.26,5.06-0.49,8.69-0.49c4.47,0,7.75,0.75,9.84,2.11c1.93,1.21,3.06,3.06,3.06,5.32
				c0,2.3-0.93,4.12-2.71,5.44c-2.39,1.85-6.3,2.79-10.71,2.79c-1.35,0-2.61-0.05-3.65-0.23V652h-4.54v-25.13H789.27z
				 M793.79,639.13c0.98,0.18,2.24,0.26,3.74,0.26c5.47,0,8.8-1.93,8.8-5.44c0-3.36-3.28-4.98-8.28-4.98
				c-1.98,0-3.49,0.11-4.26,0.26L793.79,639.13L793.79,639.13z"/>
			<path class="st6" d="M827.38,626.56h4.54v22.68h14.99V652h-19.52L827.38,626.56L827.38,626.56z"/>
			<path class="st6" d="M890.32,639.02c0,8.75-7.34,13.39-16.29,13.39c-9.26,0-15.77-5.21-15.77-12.9c0-8.08,6.93-13.36,16.29-13.36
				C884.13,626.15,890.32,631.48,890.32,639.02z M863.1,639.43c0,5.44,4.06,10.3,11.19,10.3c7.19,0,11.23-4.8,11.23-10.57
				c0-5.06-3.65-10.34-11.19-10.34C866.84,628.83,863.1,633.85,863.1,639.43z"/>
			<path class="st6" d="M906.62,626.91c2.3-0.34,5.56-0.52,8.69-0.52c4.84,0,7.97,0.64,10.14,2.07c1.78,1.13,2.76,2.87,2.76,4.83
				c0,3.36-2.91,5.59-6.6,6.5v0.11c2.71,0.67,4.32,2.48,5.15,5.13c1.15,3.54,1.98,6.01,2.71,6.99h-4.69
				c-0.58-0.72-1.35-2.91-2.34-6.07c-1.04-3.51-2.91-4.83-7.02-4.95h-4.26v11.02h-4.54L906.62,626.91L906.62,626.91z M911.16,638.5
				h4.63c4.84,0,7.91-1.93,7.91-4.83c0-3.28-3.28-4.72-8.06-4.75c-2.19,0-3.74,0.15-4.47,0.31V638.5z"/>
			<path class="st6" d="M963.23,640.08H949.6v9.16h15.2V652h-19.72v-25.44H964v2.76h-14.42v8.05h13.64v2.71H963.23z"/>
		</g>
	</g>
	<rect x="334.16" y="503.92" class="st1" width="4.03" height="164.25"/>
</g>
<g>
	<path class="st7" d="M4050.6,430.74c0.15,0-1.97,4.19-2.21,4.55c-1.52,2.4-2.96,4.96-4.96,7.02c-2.8,2.91-6.09,3.69-9.98,3.93
		c-2.49,0.16-5.01,0.79-7.48,0.8c-0.05,0.55,0,0.99-0.02,1.81c-0.05,13.7,0.09,66.1-0.09,67.44c-10.92,0.16-19.84-8.67-19.84-19.57
		c0-16.44,0-38.47,0-46.54c-0.13-2.27,0.29-3.27-0.26-3.13c-5.12-0.02-22.42,0.04-22.8-0.04c0-0.02,0-0.05,0-0.07
		c-0.16-8.91,7.02-16.2,15.93-16.2c19.55,0,50.12,0.02,50.12,0C4049.03,430.74,4050.6,430.74,4050.6,430.74z"/>
	<path class="st7" d="M4099.52,511.01c-0.73-0.86-1.39-1.83-2.01-2.78c-5.36-8.17-10.72-16.35-16.06-24.54
		c-0.35-0.53-0.7-1.06-1.19-1.44c-0.8-0.62-3.22-1.23-4.11-0.51c-0.66,0.53-0.31,0.42-0.55,1.15c-0.31,0.95,0,2.6,0,3.6
		c0,3.73,0,7.46,0,11.19c0,1.02,0,16.24,0,16.24h-18.69v-83.2c5.83,0,11.67,0,17.52,0c7.83,0,16.27-0.82,23.92,1.19
		c6.02,1.57,11.74,4.88,15.49,10.13c4.35,6.11,5.38,14.3,3.02,21.47c-2.4,7.31-8.56,12.45-15.6,14.52
		c8.05,11.98,16.11,23.94,24.16,35.91c-6.02,0-12.03,0-18.05-0.02c-1.76,0-3.58-0.02-5.17-0.77
		C4101.15,512.68,4100.27,511.91,4099.52,511.01z M4075.6,445.04v22.77c0,0,9.31,0,9.34,0c3.62,0,8.36-0.22,10.7-3.6
		c2.8-4.02,1.19-11.03-1.61-14.56c-2.4-3.02-5.89-4.61-9.6-4.61H4075.6z"/>
	<path class="st7" d="M4188.83,509.75l-4.68-13.53h-32.17l-4.33,12.56c-1.06,3.09-3.97,5.16-7.22,5.16h-15l32.95-83.37h19.4
		l32.95,83.37h-16.02C4192.05,513.94,4189.69,512.26,4188.83,509.75z M4157.2,481.15l22.55,0.11l-11.76-31.29L4157.2,481.15z"/>
	<path class="st7" d="M4270.41,430.57h8.85c2.01,0,3.36,2.03,2.6,3.89l-32.26,77.75c-0.44,1.04-1.46,1.74-2.6,1.74h-6.56
		c-4.85,0-9.22-2.93-11.06-7.39l-29.79-72.08c-0.77-1.85,0.6-3.88,2.6-3.88h9.58c4.26,0,8.05,2.67,9.49,6.66l16.75,46.25
		c0.9,2.47,4.39,2.47,5.29,0l16.6-45.57C4261.52,433.5,4265.71,430.57,4270.41,430.57z"/>
	<path class="st7" d="M4302.59,431.49v48.37c0,18.29,8.91,26.06,20.88,26.06c13.29,0,21.82-7.99,21.82-26.06v-48.37h11.7v47.64
		c0,25.09-14.5,35.38-33.92,35.38c-18.36,0-32.18-9.56-32.18-34.91v-36.41C4290.89,436.74,4296.12,431.49,4302.59,431.49
		L4302.59,431.49z"/>
	<path class="st7" d="M4374.49,514.51v-83.02h12.91l29.35,42c6.78,9.75,10.79,13.07,15.14,21.56l0.33,0.69
		c-1.1-11.1-0.11-16.59-0.11-29.51v-34.74h11.14v83.02h-11.96l-29.08-42.11c-6.38-9.23-12.45-13.11-17.06-22.09l0.04,3.99
		c0.68,10.48,0.44,10.95,0.44,24.74v35.48L4374.49,514.51L4374.49,514.51z"/>
	<path class="st7" d="M4475.08,431.49v73.46c0,6.4-5.19,11.59-11.59,11.59l0,0v-73.46C4463.51,436.68,4468.68,431.49,4475.08,431.49
		L4475.08,431.49z"/>
	<path class="st7" d="M4514.71,441.69h-26.53l0,0c0-5.63,4.57-10.2,10.2-10.2h51.18h3.24c0,5.16-2.34,9.95-7.5,9.95l-19.18,0.6
		v74.48l0,0c-6.29,0-11.39-5.1-11.39-11.39v-63.44H4514.71z"/>
	<path class="st7" d="M4607,477.37l-30.76,0.18V505l39.22,0.09l0,0c0,4.79-3.86,8.7-8.65,8.76l-43.17,0.6v-82.98h41.71
		c5.58,0,10.11,4.52,10.11,10.11l0,0l-39.22-0.42l0.09,27.26l21.83,0.07C4603.05,468.52,4607,472.49,4607,477.37L4607,477.37z"/>
	<path class="st7" d="M4630.15,431.98c7.04-0.99,16.22-0.15,25.4-0.15c16.62,0,27.65,0.97,35.49,7.81
		c7.97,6.82,12.64,16.51,12.64,30.04c0,13.66-4.52,24.83-12.89,32.51c-8.38,7.83-22.2,12.05-39.63,12.05
		c-8.25,0-15.16-0.37-21.01-1.01V431.98z M4641.73,504.94c3.25-0.2,7.57,0.46,12.09,0.18c25.07-1.57,37.85-12.4,35.44-34.85
		c-2.08-19.38-9.53-29.24-34.05-28.58c-5.98,0.16-10.42-0.15-13.48,0.46V504.94z"/>
	<path class="st7" d="M3996.61,552.29h5.39v27.06h17.88v3.29h-23.28V552.29z"/>
	<path class="st7" d="M4043.77,552.29v30.36h-5.39v-30.36H4043.77z"/>
	<path class="st7" d="M4074.82,582.64l-13.66-30.36h5.83l6.53,14.96c1.79,4.1,3.35,7.79,4.48,11.36h0.13
		c1.17-3.51,2.93-7.33,4.77-11.3l7.08-14.99h5.78l-14.96,30.36h-5.98V582.64z"/>
	<path class="st7" d="M4134.39,568.42h-16.27v10.94h18.14v3.29h-23.53v-30.36h22.6v3.29h-17.21v9.6h16.27V568.42z"/>
	<path class="st7" d="M4181.31,552.29h5.39v27.06h17.88v3.29h-23.28V552.29z"/>
	<path class="st7" d="M4256.42,567.15c0,10.44-8.76,15.98-19.44,15.98c-11.04,0-18.82-6.22-18.82-15.4
		c0-9.64,8.27-15.95,19.44-15.95C4249.03,551.79,4256.42,558.16,4256.42,567.15z M4223.94,567.65c0,6.49,4.85,12.29,13.35,12.29
		c8.58,0,13.42-5.72,13.42-12.62c0-6.03-4.35-12.34-13.35-12.34C4228.42,554.99,4223.94,560.99,4223.94,567.65z"/>
	<path class="st7" d="M4285.07,582.64l-13.66-30.36h5.83l6.53,14.96c1.81,4.1,3.35,7.79,4.48,11.36h0.13
		c1.19-3.51,2.93-7.33,4.77-11.3l7.08-14.99h5.78l-14.96,30.36h-5.98V582.64z"/>
	<path class="st7" d="M4344.67,568.42h-16.27v10.94h18.14v3.29H4323v-30.36h22.6v3.29h-17.21v9.6h16.27V568.42z"/>
	<path class="st7" d="M4413.24,568.42h-16.27v10.94h18.14v3.29h-23.53v-30.36h22.6v3.29h-17.21v9.6h16.27V568.42z"/>
	<path class="st7" d="M4457.49,582.64l-5.34-6.71c-2.18-2.56-3.55-4.22-4.85-5.98h-0.13c-1.17,1.76-2.36,3.38-4.53,6.03l-5.03,6.67
		h-6.22l12.8-15.36l-12.29-14.99h6.27l5.52,7.11c1.55,1.97,2.72,3.51,3.84,5.14h0.18c1.17-1.79,2.23-3.2,3.79-5.14l5.71-7.11h6.22
		l-12.73,14.78l13.04,15.58h-6.25V582.64z"/>
	<path class="st7" d="M4482.47,552.65c2.62-0.31,6.03-0.59,10.37-0.59c5.34,0,9.25,0.9,11.74,2.52c2.3,1.44,3.66,3.66,3.66,6.35
		c0,2.74-1.12,4.92-3.24,6.49c-2.85,2.21-7.52,3.33-12.78,3.33c-1.61,0-3.11-0.05-4.35-0.27v12.16h-5.41v-29.99H4482.47z
		 M4487.87,567.28c1.17,0.22,2.67,0.31,4.46,0.31c6.53,0,10.5-2.3,10.5-6.49c0-4-3.91-5.94-9.87-5.94c-2.36,0-4.17,0.13-5.08,0.31
		V567.28L4487.87,567.28z"/>
	<path class="st7" d="M4527.95,552.29h5.41v27.06h17.88v3.29h-23.3V552.29L4527.95,552.29z"/>
	<path class="st7" d="M4603.05,567.15c0,10.44-8.76,15.98-19.44,15.98c-11.04,0-18.82-6.22-18.82-15.4
		c0-9.64,8.27-15.95,19.44-15.95C4595.66,551.79,4603.05,558.16,4603.05,567.15z M4570.58,567.65c0,6.49,4.85,12.29,13.35,12.29
		c8.58,0,13.4-5.72,13.4-12.62c0-6.03-4.35-12.34-13.35-12.34C4575.04,554.99,4570.58,560.99,4570.58,567.65z"/>
	<path class="st7" d="M4622.51,552.71c2.74-0.4,6.64-0.62,10.37-0.62c5.78,0,9.51,0.77,12.11,2.47c2.12,1.35,3.29,3.42,3.29,5.76
		c0,4-3.47,6.67-7.88,7.75v0.13c3.24,0.8,5.16,2.96,6.14,6.13c1.37,4.22,2.36,7.17,3.24,8.34h-5.6c-0.69-0.86-1.61-3.47-2.8-7.24
		c-1.24-4.19-3.47-5.76-8.38-5.91h-5.08v13.15h-5.41L4622.51,552.71L4622.51,552.71z M4627.92,566.53h5.52
		c5.78,0,9.44-2.3,9.44-5.76c0-3.91-3.91-5.63-9.62-5.67c-2.61,0-4.46,0.18-5.34,0.37V566.53z"/>
	<path class="st7" d="M4690.06,568.42h-16.27v10.94h18.14v3.29h-23.53v-30.36h22.58v3.29h-17.21v9.6h16.27v3.24H4690.06z"/>
</g>
<g>
	
		<linearGradient id="SVGID_00000169529142121035661120000009364828070839546805_" gradientUnits="userSpaceOnUse" x1="1397.8551" y1="472.6412" x2="1915.51" y2="472.6412">
		<stop  offset="0.081" style="stop-color:#B1B6BB"/>
		<stop  offset="0.4916" style="stop-color:#E1E5E5"/>
		<stop  offset="1" style="stop-color:#F4F4F4"/>
	</linearGradient>
	
		<circle style="fill:url(#SVGID_00000169529142121035661120000009364828070839546805_);stroke:#034466;stroke-miterlimit:10;" cx="1656.68" cy="472.64" r="258.83"/>
	<g>
		<path class="st7" d="M1802.32,403.21c0,22.38,0,44.76,0,67.14c0,15.78,0,31.55,0,47.33c0,16.37,1.07,31.52-9.14,45.68
			c-0.3,0.42-0.61,0.83-0.92,1.24c-4.84,6.33-10.93,11.61-17.53,16.03c-3.37,2.26-10.2,6.46-14.42,6.46c0,0-75.11,0-75.87,0
			c-22.99,0-45.69-27.02-48.01-48.76c-1.35-12.62,0-26.12,0-38.79c0-6.12,0-87.45,0-87.45c0,0-32.63,0-32.63,0V585.9
			c0,0-10.8,0-10.8,0c-11.12-2.55-21.47-8.33-29.35-16.59c-8.3-8.69-11.7-18.76-15.07-29.98l1.35-89.72l0.56-37.51h-87.38
			c0,0,0-6.06,0-6.06c1.47-12.04,6.97-23.39,15.39-32.1c8.45-8.75,17.89-12.43,29.26-15.74h183.06c0,0-0.48,151.2-0.48,152.08
			c-0.03,8.63,10.4,17.25,17.6,20.11c16.7,6.64,32.35-3.05,39.94-17.85l0.9-1.78l-0.11-152.57h3.47c0,0,7.67,1.1,7.67,1.1
			c17.31,2.48,35.2,19.21,39.86,35.65C1799.67,394.95,1802.32,403.21,1802.32,403.21z"/>
		
			<linearGradient id="SVGID_00000051376670843697764200000012329047532772867739_" gradientUnits="userSpaceOnUse" x1="1548.5778" y1="498.3672" x2="1603.8053" y2="498.3672">
			<stop  offset="0.081" style="stop-color:#093E60"/>
			<stop  offset="0.4916" style="stop-color:#093959"/>
			<stop  offset="1" style="stop-color:#081C2E"/>
		</linearGradient>
		<path style="fill:url(#SVGID_00000051376670843697764200000012329047532772867739_);" d="M1603.81,412.83c0,0,0,173.01,0,173.07
			c0,0.73-14.11-1.55-15.49-1.91c-5.29-1.37-10.39-3.5-15.03-6.4c-9.56-5.99-14.81-14.43-20.4-23.87l-4.32-14.39
			c0,0,1.35-89.62,1.35-89.74c0.24-13.25,38.81-45.21,52.01-37.81C1601.95,411.79,1603.81,412.83,1603.81,412.83z"/>
		
			<linearGradient id="SVGID_00000121986376613642570040000007764625870821467821_" gradientUnits="userSpaceOnUse" x1="1704.4451" y1="472.6412" x2="1802.3197" y2="472.6412">
			<stop  offset="0.081" style="stop-color:#093E60"/>
			<stop  offset="0.4916" style="stop-color:#093959"/>
			<stop  offset="1" style="stop-color:#081C2E"/>
		</linearGradient>
		<path style="fill:url(#SVGID_00000121986376613642570040000007764625870821467821_);" d="M1802.32,403.21c0,30.91,0,61.82,0,92.74
			c0,7.79-0.16,15.57-0.19,23.36c-0.05,13.61,1.57,26.05-4.88,38.56c-8.04,15.6-21.17,23.28-36.93,29.22c0,0-55.83,0-55.88,0
			c4.32,0.02,12.86-6.38,16.66-8.57c5.7-3.29,11.18-7.12,15.44-12.21c13.16-15.73,11.06-36.54,12.24-55.61
			c0.35-5.63-0.01-11.39-0.01-17.03c-0.02-27.34-0.04-54.69-0.06-82.03c-0.01-17.81-0.03-35.62-0.04-53.44c0,0,3.47,0,3.47,0
			l7.67,1.1l8.66,2.76l10.21,5.02l8.15,6.85l5.75,6.6l5.27,8.04l1.81,6.37C1799.67,394.95,1802.32,403.21,1802.32,403.21z"/>
	</g>
</g>
<g>
	<g>
		<path class="st7" d="M5343.65,488.15c0,14.34,0,28.69,0,43.03c0,10.11,0,20.22,0,30.33c0,10.49,0.68,20.2-5.86,29.28
			c-0.19,0.27-0.39,0.53-0.59,0.79c-3.1,4.06-7,7.44-11.23,10.28c-2.16,1.45-6.53,4.14-9.24,4.14c0,0-48.14,0-48.63,0
			c-14.74,0-29.28-17.32-30.77-31.25c-0.86-8.09,0-16.74,0-24.86c0-3.92,0-56.05,0-56.05c0,0-20.92,0-20.92,0v111.4
			c0,0-6.92,0-6.92,0c-7.12-1.64-13.76-5.34-18.81-10.63c-5.32-5.57-7.5-12.02-9.66-19.21l0.87-57.51l0.36-24.04h-56.01
			c0,0,0-3.89,0-3.89c0.94-7.71,4.47-14.99,9.86-20.57c5.42-5.61,11.47-7.97,18.76-10.09h117.33c0,0-0.31,96.91-0.31,97.48
			c-0.02,5.53,6.67,11.06,11.28,12.89c10.7,4.26,20.73-1.95,25.6-11.44l0.58-1.14l-0.07-97.79h2.22c0,0,4.91,0.7,4.92,0.71
			c11.09,1.59,22.56,12.31,25.54,22.85C5341.95,482.85,5343.65,488.15,5343.65,488.15z"/>
		
			<linearGradient id="SVGID_00000153677756315011070610000011851721289025680776_" gradientUnits="userSpaceOnUse" x1="5181.0171" y1="549.1406" x2="5216.4146" y2="549.1406">
			<stop  offset="0.081" style="stop-color:#093E60"/>
			<stop  offset="0.4916" style="stop-color:#093959"/>
			<stop  offset="1" style="stop-color:#081C2E"/>
		</linearGradient>
		<path style="fill:url(#SVGID_00000153677756315011070610000011851721289025680776_);" d="M5216.41,494.32c0,0,0,110.89,0,110.93
			c0,0.47-9.04-0.99-9.93-1.22c-3.39-0.88-6.66-2.24-9.63-4.1c-6.13-3.84-9.49-9.25-13.07-15.3l-2.77-9.22
			c0,0,0.87-57.44,0.87-57.52c0.15-8.49,24.88-28.98,33.34-24.23C5215.22,493.65,5216.41,494.32,5216.41,494.32z"/>
		
			<linearGradient id="SVGID_00000015331521897959159920000014274224748493965745_" gradientUnits="userSpaceOnUse" x1="5280.9185" y1="532.6519" x2="5343.6499" y2="532.6519">
			<stop  offset="0.081" style="stop-color:#093E60"/>
			<stop  offset="0.4916" style="stop-color:#093959"/>
			<stop  offset="1" style="stop-color:#081C2E"/>
		</linearGradient>
		<path style="fill:url(#SVGID_00000015331521897959159920000014274224748493965745_);" d="M5343.65,488.15c0,19.81,0,39.63,0,59.44
			c0,4.99-0.1,9.98-0.12,14.97c-0.03,8.73,1.01,16.7-3.13,24.72c-5.15,10-13.57,14.92-23.67,18.73c0,0-35.78,0-35.81,0
			c2.77,0.01,8.24-4.09,10.68-5.49c3.65-2.11,7.17-4.57,9.9-7.83c8.43-10.08,7.09-23.42,7.84-35.64c0.22-3.61-0.01-7.3-0.01-10.92
			c-0.01-17.52-0.03-35.05-0.04-52.57c-0.01-11.41-0.02-22.83-0.03-34.25c0,0,2.22,0,2.22,0l4.92,0.71l5.55,1.77l6.54,3.22
			l5.22,4.39l3.69,4.23l3.38,5.15l1.16,4.09C5341.95,482.85,5343.65,488.15,5343.65,488.15z"/>
	</g>
	<g>
		<path class="st7" d="M5459.42,476.79c0.12,0-1.66,3.51-1.85,3.82c-1.27,2.01-2.48,4.15-4.15,5.88c-2.34,2.44-5.1,3.1-8.37,3.29
			c-2.08,0.14-4.2,0.66-6.27,0.67c-0.05,0.46,0,0.83-0.02,1.52c-0.05,11.48,0.08,55.4-0.08,56.52c-9.15,0.14-16.63-7.26-16.63-16.4
			c0-13.78,0-32.24,0-39c-0.11-1.9,0.25-2.74-0.21-2.62c-4.29-0.02-18.79,0.03-19.11-0.03c0-0.02,0-0.05,0-0.06
			c-0.14-7.46,5.88-13.58,13.35-13.58c16.38,0,42,0.02,42,0C5458.11,476.79,5459.42,476.79,5459.42,476.79z"/>
		<path class="st7" d="M5500.42,544.06c-0.61-0.72-1.17-1.53-1.69-2.33c-4.49-6.85-8.98-13.7-13.46-20.57
			c-0.29-0.44-0.58-0.89-1-1.21c-0.67-0.52-2.7-1.03-3.45-0.43c-0.55,0.44-0.26,0.35-0.46,0.97c-0.26,0.8,0,2.18,0,3.02
			c0,3.13,0,6.25,0,9.38c0,0.86,0,13.61,0,13.61h-15.66v-69.73c4.89,0,9.78,0,14.68,0c6.56,0,13.64-0.69,20.04,1
			c5.04,1.32,9.84,4.09,12.98,8.49c3.65,5.12,4.51,11.98,2.53,17.99c-2.01,6.13-7.17,10.44-13.07,12.17
			c6.74,10.04,13.5,20.06,20.24,30.1c-5.04,0-10.08,0-15.12-0.02c-1.47,0-3-0.02-4.34-0.64
			C5501.78,545.46,5501.05,544.82,5500.42,544.06z M5480.37,488.77v19.08c0,0,7.8,0,7.83,0c3.03,0,7-0.18,8.96-3.02
			c2.34-3.37,1-9.24-1.35-12.2c-2.01-2.53-4.93-3.86-8.05-3.86H5480.37z"/>
		<path class="st7" d="M5575.26,543.01l-3.92-11.34h-26.96l-3.63,10.53c-0.89,2.59-3.33,4.32-6.05,4.32h-12.57l27.61-69.87h16.26
			l27.61,69.87h-13.42C5577.96,546.52,5575.98,545.11,5575.26,543.01z M5548.75,519.04l18.9,0.09l-9.85-26.22L5548.75,519.04z"/>
		<path class="st7" d="M5643.63,476.65h7.42c1.69,0,2.82,1.7,2.18,3.26l-27.03,65.16c-0.37,0.87-1.23,1.46-2.18,1.46h-5.5
			c-4.06,0-7.72-2.45-9.27-6.19l-24.96-60.41c-0.64-1.55,0.51-3.25,2.18-3.25h8.03c3.57,0,6.74,2.24,7.95,5.58l14.04,38.76
			c0.75,2.07,3.68,2.07,4.43,0l13.91-38.19C5636.18,479.1,5639.69,476.65,5643.63,476.65z"/>
		<path class="st7" d="M5670.6,477.42v40.53c0,15.32,7.46,21.84,17.5,21.84c11.14,0,18.28-6.7,18.28-21.84v-40.53h9.81v39.92
			c0,21.03-12.15,29.65-28.43,29.65c-15.39,0-26.97-8.01-26.97-29.25v-30.51C5660.79,481.82,5665.17,477.42,5670.6,477.42
			L5670.6,477.42z"/>
		<path class="st7" d="M5730.85,546.99v-69.57h10.82l24.6,35.2c5.69,8.17,9.04,10.96,12.69,18.07l0.28,0.58
			c-0.92-9.3-0.09-13.9-0.09-24.73v-29.12h9.33v69.57h-10.02l-24.37-35.29c-5.35-7.74-10.44-10.99-14.3-18.51l0.03,3.34
			c0.57,8.78,0.37,9.18,0.37,20.73v29.73L5730.85,546.99L5730.85,546.99z"/>
		<path class="st7" d="M5815.16,477.42v61.56c0,5.36-4.35,9.72-9.72,9.72l0,0v-61.56C5805.46,481.77,5809.79,477.42,5815.16,477.42
			L5815.16,477.42z"/>
		<path class="st7" d="M5848.36,485.97h-22.24l0,0c0-4.72,3.83-8.55,8.55-8.55h42.89h2.71c0,4.32-1.96,8.34-6.28,8.34l-16.08,0.51
			v62.42l0,0c-5.27,0-9.55-4.28-9.55-9.55v-53.16H5848.36z"/>
		<path class="st7" d="M5925.71,515.87l-25.78,0.15v23l32.87,0.08l0,0c0,4.02-3.23,7.29-7.25,7.34l-36.18,0.51V477.4h34.96
			c4.67,0,8.47,3.79,8.47,8.47l0,0l-32.87-0.35l0.08,22.85l18.3,0.06C5922.4,508.45,5925.71,511.78,5925.71,515.87L5925.71,515.87z"
			/>
		<path class="st7" d="M5945.11,477.83c5.9-0.83,13.59-0.12,21.29-0.12c13.93,0,23.17,0.81,29.75,6.54
			c6.68,5.72,10.59,13.84,10.59,25.18c0,11.45-3.79,20.81-10.8,27.25c-7.02,6.56-18.6,10.1-33.21,10.1c-6.91,0-12.7-0.31-17.61-0.84
			V477.83z M5954.81,538.98c2.73-0.17,6.34,0.38,10.13,0.15c21.01-1.32,31.72-10.39,29.7-29.21c-1.75-16.24-7.98-24.5-28.53-23.95
			c-5.01,0.14-8.73-0.12-11.29,0.38V538.98z"/>
		<path class="st7" d="M5414.17,578.65h4.52v22.68h14.99v2.76h-19.51V578.65z"/>
		<path class="st7" d="M5453.69,578.65v25.44h-4.52v-25.44H5453.69z"/>
		<path class="st7" d="M5479.71,604.09l-11.45-25.44h4.89l5.47,12.54c1.5,3.43,2.8,6.53,3.75,9.52h0.11c0.98-2.94,2.45-6.15,4-9.47
			l5.93-12.57h4.84l-12.54,25.44h-5.01V604.09z"/>
		<path class="st7" d="M5529.64,592.17H5516v9.16h15.2v2.76h-19.72v-25.44h18.94v2.76H5516v8.05h13.64V592.17z"/>
		<path class="st7" d="M5568.96,578.65h4.52v22.68h14.99v2.76h-19.51V578.65z"/>
		<path class="st7" d="M5631.9,591.11c0,8.75-7.34,13.39-16.29,13.39c-9.26,0-15.77-5.21-15.77-12.9c0-8.08,6.93-13.36,16.29-13.36
			C5625.71,578.24,5631.9,583.57,5631.9,591.11z M5604.69,591.53c0,5.44,4.06,10.3,11.19,10.3c7.19,0,11.25-4.8,11.25-10.57
			c0-5.06-3.65-10.34-11.19-10.34C5608.44,580.92,5604.69,585.95,5604.69,591.53z"/>
		<path class="st7" d="M5655.92,604.09l-11.45-25.44h4.89l5.47,12.54c1.52,3.43,2.8,6.53,3.75,9.52h0.11c1-2.94,2.45-6.15,4-9.47
			l5.93-12.57h4.84l-12.54,25.44h-5.01V604.09z"/>
		<path class="st7" d="M5705.86,592.17h-13.64v9.16h15.2v2.76h-19.72v-25.44h18.94v2.76h-14.42v8.05h13.64V592.17z"/>
		<path class="st7" d="M5763.33,592.17h-13.64v9.16h15.2v2.76h-19.72v-25.44h18.94v2.76h-14.42v8.05h13.64V592.17z"/>
		<path class="st7" d="M5800.41,604.09l-4.47-5.62c-1.82-2.15-2.97-3.54-4.06-5.01h-0.11c-0.98,1.47-1.98,2.84-3.8,5.06l-4.21,5.59
			h-5.21l10.73-12.87l-10.3-12.57h5.26l4.63,5.96c1.3,1.66,2.28,2.94,3.22,4.31h0.15c0.98-1.5,1.87-2.68,3.17-4.31l4.78-5.96h5.21
			l-10.67,12.38l10.93,13.06h-5.24V604.09z"/>
		<path class="st7" d="M5821.35,578.96c2.19-0.26,5.06-0.49,8.69-0.49c4.47,0,7.75,0.75,9.84,2.11c1.93,1.21,3.06,3.06,3.06,5.32
			c0,2.3-0.94,4.12-2.71,5.44c-2.39,1.85-6.3,2.79-10.71,2.79c-1.35,0-2.61-0.05-3.65-0.23v10.19h-4.54v-25.13H5821.35z
			 M5825.87,591.22c0.98,0.18,2.24,0.26,3.74,0.26c5.47,0,8.8-1.93,8.8-5.44c0-3.36-3.28-4.98-8.28-4.98
			c-1.98,0-3.49,0.11-4.26,0.26V591.22L5825.87,591.22z"/>
		<path class="st7" d="M5859.46,578.65h4.54v22.68h14.99v2.76h-19.52V578.65L5859.46,578.65z"/>
		<path class="st7" d="M5922.4,591.11c0,8.75-7.34,13.39-16.29,13.39c-9.26,0-15.77-5.21-15.77-12.9c0-8.08,6.93-13.36,16.29-13.36
			C5916.21,578.24,5922.4,583.57,5922.4,591.11z M5895.18,591.53c0,5.44,4.06,10.3,11.19,10.3c7.19,0,11.23-4.8,11.23-10.57
			c0-5.06-3.65-10.34-11.19-10.34C5898.92,580.92,5895.18,585.95,5895.18,591.53z"/>
		<path class="st7" d="M5938.7,579c2.3-0.34,5.56-0.52,8.69-0.52c4.84,0,7.97,0.64,10.15,2.07c1.78,1.13,2.76,2.87,2.76,4.83
			c0,3.36-2.91,5.59-6.6,6.5v0.11c2.71,0.67,4.32,2.48,5.15,5.13c1.15,3.54,1.98,6.01,2.71,6.99h-4.69
			c-0.58-0.72-1.35-2.91-2.34-6.07c-1.04-3.51-2.91-4.83-7.02-4.95h-4.26v11.02h-4.54V579L5938.7,579z M5943.24,590.59h4.63
			c4.84,0,7.91-1.93,7.91-4.83c0-3.28-3.28-4.72-8.06-4.75c-2.19,0-3.74,0.15-4.47,0.31V590.59z"/>
		<path class="st7" d="M5995.31,592.17h-13.64v9.16h15.2v2.76h-19.72v-25.44h18.93v2.76h-14.42v8.05h13.64v2.71H5995.31z"/>
	</g>
	
		<linearGradient id="SVGID_00000103267127604494271460000004929330340268376453_" gradientUnits="userSpaceOnUse" x1="5366.2397" y1="538.1384" x2="5370.2686" y2="538.1384">
		<stop  offset="0.081" style="stop-color:#093E60"/>
		<stop  offset="0.4916" style="stop-color:#093959"/>
		<stop  offset="1" style="stop-color:#081C2E"/>
	</linearGradient>
	
		<rect x="5366.24" y="456.01" style="fill:url(#SVGID_00000103267127604494271460000004929330340268376453_);" width="4.03" height="164.25"/>
</g>
<linearGradient id="SVGID_00000099646616776754328510000001522480129289644715_" gradientUnits="userSpaceOnUse" x1="-648.4705" y1="133.4746" x2="-286.2112" y2="133.4746">
	<stop  offset="0.081" style="stop-color:#093E60"/>
	<stop  offset="0.4916" style="stop-color:#093959"/>
	<stop  offset="1" style="stop-color:#081C2E"/>
</linearGradient>
<rect x="-648.47" y="54.33" style="fill:url(#SVGID_00000099646616776754328510000001522480129289644715_);" width="362.26" height="158.3"/>
<linearGradient id="SVGID_00000163050144418423136390000003917159483301400510_" gradientUnits="userSpaceOnUse" x1="-556.7228" y1="311.6753" x2="-348.3824" y2="311.6753">
	<stop  offset="0.081" style="stop-color:#B1B6BB"/>
	<stop  offset="0.4916" style="stop-color:#E1E5E5"/>
	<stop  offset="1" style="stop-color:#F4F4F4"/>
</linearGradient>
<rect x="-556.72" y="220.14" style="fill:url(#SVGID_00000163050144418423136390000003917159483301400510_);" width="208.34" height="183.06"/>
</svg>
